<svg id="Layer_1" data-name="Layer 1" xmlns="http://www.w3.org/2000/svg" viewBox="0 0 349.505 684.042"><defs><style>.cls-1{fill:#e7e3bf;}.cls-2{fill:#e6e2bf;}.cls-3{fill:#ccc9a8;}.cls-4{fill:#ccc9a9;}.cls-5{fill:#e1e1bf;}.cls-6{fill:#adb098;}.cls-7{fill:#282336;}.cls-8{fill:#949681;}.cls-9{fill:#adab90;}.cls-10{fill:#802928;}.cls-11{fill:#bbb899;}.cls-12{fill:#201a30;}.cls-13{fill:#c5c4c6;}</style></defs><title>dog</title><path class="cls-1" d="M164.359,544.426c.119-14.83,1.014-29.7.2-44.482-2.1-38.378,13.4-64.905,50.257-77.883q20.99-.019,42.011-.034c.008,31.118.341,31.447,31.806,31.447h4.818c28.545,0,29.66-1.145,29.444-30.178,0-.4-.018-.8-.028-1.2l43.974-.433c38.4,10.8,54.882,32.288,55.21,71.858.155,18.766.444,37.53.673,56.295-2.619,28.97-1.142,57.979-.8,86.977q-.22,17.927-.441,35.853c-5.046.031-10.147-.227-14.623,2.786-7.413-7.109-15.826-5.5-24.366-2.8-5.665-8.7-13.5-7.224-21.576-4.594-8.259-5.078-17.342-5.8-26.7-5.053-.037-22.792.321-45.593-.218-68.373-.582-24.589-18.735-42.785-41.306-42.388-22.522.4-40,19.375-40.061,43.583q-.081,33.588-.047,67.177c-7.554,1.7-17.99-4.994-21.835,7.5-8.514-4.552-17.02-9-24.5,1.663-9.105-1.886-18.257-4.156-26.267,3.136-4.5-3.025-9.659-2.5-14.682-2.686l-.486-35.783C165.388,606.013,166.265,575.213,164.359,544.426Z" transform="translate(-135.959 -32)"/><path class="cls-2" d="M412.272,262.032q-.44,26.984-.879,53.969c-5.847-14.524-12.728-28.083-25.133-38.657-19.286-16.44-54.855-20.072-73.812-6.443-12.456-5.937-25.6-2.3-38.445-2.825-3.365-.138-4.919,1.627-6.266,4.122-2.5-4.762-7.115-6.518-11.826-7.452-18.152-3.6-35.538-2.584-52.423,6.587-18.326,9.954-26.9,26.775-34.7,44.541q-.358-24.024-.716-48.048c.023-38.5.371-77-.085-115.491-.192-16.2,2.917-31,12.358-44.271,16.932-18.917,39.1-21.337,62.638-20.51,17.524.616,17.538.118,20.736-16.547C266.969,54.036,274.872,40.427,292.247,32c-.949,9.587-6.155,17.153-5.96,25.788.081,3.582-.317,8.2,3.373,9.56,3.98,1.467,4.306-3.758,6.341-5.888,4.7-4.918,8.935-10.378,16.624-10.486l.139.149c1.586,9.314-2.872,18.043-2.515,27.352.252,6.567,2.062,9.545,8.959,9.269,8.807-.352,17.653.237,26.459-.131,19.153-.8,36.559,3.489,51.278,16.385,11.076,12.681,14.994,27.342,14.788,44.2C411.269,186.133,412.017,224.086,412.272,262.032ZM257.633,207.668c.093-8.456-.4-16.836-4.738-24.38-3.735-6.5-7.781-6-11.721-.077-6.211,9.333-6.227,38.377-.005,47.712,3.934,5.9,7.984,6.335,11.723-.1C257.048,223.669,257.687,215.715,257.633,207.668Zm86.649-1.2c.137-8.089-.707-16.025-4.761-23.187-3.7-6.543-7.813-5.931-11.737-.08-6.232,9.294-6.225,38.391.007,47.727,3.938,5.9,8.032,6.307,11.733-.1C343.872,223.3,344.392,214.914,344.283,206.473Z" transform="translate(-135.959 -32)"/><path class="cls-3" d="M312.446,270.9c18.957-13.629,54.526-10,73.812,6.443,12.405,10.574,19.286,24.133,25.133,38.657,4.122,36.839-9.952,63.7-43.738,79.748-14.865,4.142-29.821,5.261-44.931,1.345-9.926-4.131-19.523-8.854-27.2-16.6-3.132-3.161-5.407-5.137-9.477-.746-7.97,8.6-18.512,13.388-29.137,17.864-14.628,3.228-29.084,2.166-43.427-1.738-33.984-16.006-48.14-43.091-44.7-80,7.8-17.763,16.379-34.584,34.7-44.538,16.885-9.171,34.271-10.186,52.423-6.587,4.711.934,9.325,2.69,11.826,7.452.328,14.5,9.711,24.692,17.418,35.513a6.432,6.432,0,0,0,10.487-.049C303.219,296.392,314.038,286.411,312.446,270.9Z" transform="translate(-135.959 -32)"/><path class="cls-4" d="M412.272,262.032c-.255-37.947-1-75.9-.539-113.837.206-16.855-3.712-31.516-14.788-44.2,24.176-10.932,47.524,3.061,48.016,29.54.581,31.266.428,62.554.049,93.825C444.768,247.335,434.342,257.869,412.272,262.032Z" transform="translate(-135.959 -32)"/><path class="cls-4" d="M180.338,108.064c-9.441,13.275-12.55,28.074-12.358,44.271.456,38.492.109,76.994.085,115.491-22.911-4.14-31.819-14.413-31.945-37.561-.162-29.679-.283-59.362.044-89.039C136.458,114.524,154.326,101.344,180.338,108.064Z" transform="translate(-135.959 -32)"/><path class="cls-5" d="M432.3,564.012c11.31-19.874,22.066-40,30.054-61.517a377.568,377.568,0,0,0,17.705-65.208c16.4,29.964-6.525,117.553-41.756,161.188C438.823,586.547,433.925,575.564,432.3,564.012Z" transform="translate(-135.959 -32)"/><path class="cls-6" d="M164.359,544.426c1.906,30.787,1.029,61.587.455,92.385a21.228,21.228,0,0,1-12.866-.364c-3.316-14.745-8.461-29.054-6.632-44.757A94.873,94.873,0,0,1,164.359,544.426Z" transform="translate(-135.959 -32)"/><path class="cls-6" d="M432.3,564.012c1.626,11.553,6.524,22.536,6,34.463.091,13.384-4,25.888-8.087,38.389-2.78,2.187-5.523-.358-8.291-.073-.339-29-1.815-58.007.8-86.977C426.126,554.406,427.27,560.518,432.3,564.012Z" transform="translate(-135.959 -32)"/><path class="cls-7" d="M322.726,397.095c15.107,3.915,30.063,2.8,44.928-1.346,1.163,8.681,2.261,17.36-.807,25.91q-21.991.217-43.98.436Q322.794,409.6,322.726,397.095Zm21.756,18.262c4.117-.558,6.609-3.01,6.263-7.071-.341-4.009-3.1-6.358-7.306-6.033-4.165.322-6.627,2.961-6.294,7.016C337.475,413.3,340.265,415.429,344.483,415.357Z" transform="translate(-135.959 -32)"/><path class="cls-7" d="M213.485,395.875c14.342,3.9,28.8,4.966,43.429,1.738q-.039,12.207-.082,24.414-21.013.016-42.011.034C210.764,413.521,212.362,404.686,213.485,395.875Zm23.587,6.26c-4.226.152-6.845,2.468-6.845,6.647s2.65,6.7,6.914,6.585a5.986,5.986,0,0,0,6.264-6.017C243.654,405.122,241.408,402.637,237.072,402.136Z" transform="translate(-135.959 -32)"/><path class="cls-8" d="M421.924,636.789c2.768-.285,5.511,2.261,8.291.073,14.333-.349,14.333-.349,15.335,18.873-1.286,20.636,1.23,16.033-21.363,17.254.008,0-.658.417-.658.417a12.664,12.664,0,0,0-2.044-.765Q421.7,654.716,421.924,636.789Z" transform="translate(-135.959 -32)"/><path class="cls-8" d="M151.948,636.447a21.228,21.228,0,0,0,12.866.364q.24,17.893.485,35.784a13.306,13.306,0,0,0-2.165.182c-1.187-.014-2.374-.035-3.561-.042-17.253-.095-17.253-.094-18.126-16.978C143.242,648.394,138.128,637.273,151.948,636.447Z" transform="translate(-135.959 -32)"/><path class="cls-2" d="M312.625,50.973l.608-.779c-.158.308-.316.615-.471.926Z" transform="translate(-135.959 -32)"/><path class="cls-9" d="M329.608,686.715q-36.038.265-72.076.531c-1.819-8.053,3.368-17.535-4.948-24.264q.019-33.588.047-67.177c.059-24.208,17.539-43.187,40.061-43.583,22.571-.4,40.724,17.8,41.306,42.388.539,22.78.181,45.581.219,68.373C327.409,669.87,330.225,678.626,329.608,686.715Z" transform="translate(-135.959 -32)"/><path class="cls-10" d="M256.831,422.027q.042-12.207.082-24.414c10.623-4.476,21.165-9.265,29.135-17.864,4.07-4.391,6.345-2.415,9.477.746,7.674,7.744,17.272,12.467,27.2,16.6q.073,12.5.145,25c.013.4.028.8.031,1.2.217,29.033-.9,30.177-29.444,30.178h-4.818C257.172,453.474,256.84,453.145,256.831,422.027Z" transform="translate(-135.959 -32)"/><path class="cls-3" d="M329.608,686.715c.618-8.089-2.2-16.845,4.61-23.732,9.36-.745,18.443-.024,26.7,5.051-5.134,15.606-1.281,31.691-2.526,47.505C330.47,717.052,330.47,717.052,329.608,686.715Z" transform="translate(-135.959 -32)"/><path class="cls-3" d="M252.584,662.982c8.316,6.73,3.129,16.212,4.948,24.264-.009,1.2-.025,2.4-.028,3.608-.063,26.034-.063,26.034-26.741,24.725q-.007-22.549-.014-45.1C234.594,657.988,245.03,664.68,252.584,662.982Z" transform="translate(-135.959 -32)"/><path class="cls-11" d="M230.749,670.482q.007,22.549.014,45.1l-24.173-.064q-.172-21.686-.343-43.372C213.728,661.486,222.235,665.931,230.749,670.482Z" transform="translate(-135.959 -32)"/><path class="cls-3" d="M206.247,672.145q.171,21.686.343,43.372l-26.368-.007q-.12-20.114-.241-40.228C187.99,667.989,197.141,670.259,206.247,672.145Z" transform="translate(-135.959 -32)"/><path class="cls-11" d="M358.392,715.54c1.245-15.814-2.608-31.9,2.526-47.505,8.079-2.628,15.911-4.107,21.577,4.6q.028,21.469.055,42.939Z" transform="translate(-135.959 -32)"/><path class="cls-4" d="M382.55,715.57q-.027-21.47-.055-42.939c8.54-2.708,16.953-4.312,24.364,2.794q-.141,20.066-.277,40.14Z" transform="translate(-135.959 -32)"/><path class="cls-11" d="M406.581,715.564q.138-20.072.277-40.14c4.479-3.01,9.579-2.752,14.625-2.782a13.315,13.315,0,0,1,2.042.756,5.721,5.721,0,0,0,1.073,1.306c6.465,11.558,2.34,24.017,2.933,36.059.2,4.068-3.325,5-6.708,5.032C416.077,715.837,411.329,715.653,406.581,715.564Z" transform="translate(-135.959 -32)"/><path class="cls-11" d="M179.98,675.281q.12,20.114.241,40.228c-4.357.114-8.714.328-13.07.312-3.544-.013-6.491-1.42-6.387-5.415.327-12.568-2.629-25.359,2.37-37.631a13.5,13.5,0,0,1,2.165-.18C170.321,672.785,175.476,672.256,179.98,675.281Z" transform="translate(-135.959 -32)"/><path class="cls-12" d="M312.446,270.9c1.591,15.511-9.227,25.492-16.805,36.761a6.432,6.432,0,0,1-10.487.049c-7.708-10.82-17.09-21.012-17.418-35.513,1.347-2.5,2.9-4.261,6.266-4.123C286.851,268.6,299.99,264.963,312.446,270.9Z" transform="translate(-135.959 -32)"/><path class="cls-7" d="M257.629,207.66c.057,8.054-.581,16.009-4.736,23.161-3.739,6.436-7.789,6-11.723.1-6.222-9.335-6.206-38.378.005-47.712,3.94-5.92,7.985-6.421,11.721.077C257.232,190.832,257.726,199.213,257.629,207.66Zm-10.992,23.8c5.236-7.348,4.857-12.995.649-19.756C242.14,217.956,242.538,223.472,246.638,231.463Z" transform="translate(-135.959 -32)"/><path class="cls-7" d="M344.293,206.464c.1,8.45-.421,16.835-4.767,24.365-3.7,6.411-7.795,6-11.733.1-6.232-9.335-6.239-38.433-.007-47.727,3.924-5.851,8.033-6.463,11.737.08C343.576,190.448,344.42,198.384,344.293,206.464Zm-11.267,5.867c-3.9,5.48-4.153,10.87-.968,16.431.311.542,2.664.755,2.945.347,3.43-4.989,2.615-10.238.5-15.466C335.395,213.371,334.849,213.275,333.026,212.33Z" transform="translate(-135.959 -32)"/><path class="cls-6" d="M424.6,674.705a5.721,5.721,0,0,1-1.073-1.306c0,.009.669-.413.661-.409A8.1,8.1,0,0,1,424.6,674.705Z" transform="translate(-135.959 -32)"/><path class="cls-13" d="M344.468,415.354c-4.2.075-6.993-2.057-7.323-6.086-.333-4.056,2.128-6.695,6.294-7.016,4.207-.325,6.965,2.024,7.306,6.033C351.091,412.346,348.6,414.8,344.468,415.354Z" transform="translate(-135.959 -32)"/><path class="cls-13" d="M237.072,402.136c4.335.5,6.582,2.987,6.333,7.215a5.986,5.986,0,0,1-6.264,6.017c-4.264.116-6.915-2.4-6.914-6.585S232.846,402.287,237.072,402.136Z" transform="translate(-135.959 -32)"/><path class="cls-13" d="M246.638,231.463c-4.1-7.992-4.5-13.508.649-19.756C251.495,218.469,251.874,224.116,246.638,231.463Z" transform="translate(-135.959 -32)"/><path class="cls-13" d="M333.026,212.33c1.824.945,2.369,1.04,2.479,1.312,2.113,5.228,2.928,10.477-.5,15.466-.281.408-2.634.2-2.945-.347C328.872,223.2,329.127,217.81,333.026,212.33Z" transform="translate(-135.959 -32)"/></svg>