<svg id="Layer_1" data-name="Layer 1" xmlns="http://www.w3.org/2000/svg" viewBox="0 0 569.36 626.522"><defs><style>.cls-1{fill:#fafafa;}.cls-2{fill:#eeefef;}.cls-3{fill:#f5f8f8;}.cls-4{fill:#ececec;}.cls-5{fill:#eaeaea;}.cls-6{fill:#f45334;}.cls-7{fill:#717171;}.cls-8{fill:#aeaeae;}.cls-9{fill:#fefefe;}.cls-10{fill:#d5d5d5;}</style></defs><title>News</title><path class="cls-1" d="M95.574,633.784c-3.329-.578-6.645-1.252-9.991-1.7-2.287-.306-3.053-1.116-2.62-3.593,1.17-6.681,2.021-13.418,3-20.133a16.034,16.034,0,0,0,.934-3.252c1.23-17.168,4.988-33.98,7.195-51.015,2.589-19.982,6.031-39.854,9.063-59.779.13-.856.531-2.053-1.172-2.452-.614,2.179-1.092,4.385-1.85,6.491-6.969,19.374-13.869,38.774-21.037,58.075-3.653,9.835-6.637,19.929-11.142,29.442-12.17-1.706-12.194-1.715-7.663-12.873,15.324-37.739,30.523-75.529,46.1-113.163,3.977-9.61,4.632-19.71,6.157-29.684,6.677-43.668,13.116-87.373,19.618-131.068,5.007-33.653,9.123-67.467,15.21-100.922,5.983-32.882,13.99-65.4,20.992-98.1.647-3.023,2.544-2.145,4.2-1.954q26.848,3.108,53.681,6.342c3.69.44,7.373.95,11.059,1.428a4.623,4.623,0,0,0,1.552.619c10.438-.057,20.586,2.482,30.91,3.4,7.363.658,14.666,1.921,22.008,2.535,12.9,1.078,25.668,3.025,38.449,4.926,9.836,1.463,19.635,3.178,29.477,4.6,15.042,2.167,30.174,3.784,45.144,6.354,16.388,2.813,32.889,4.775,49.3,7.388,15.135,2.41,30.286,4.754,45.483,6.72,5.983.774,11.846,3.271,18.061,1.777,18.187,4.285,36.752,6.325,55.155,9.328,5.156.841,9.373,4.032,14.01,6.166,1.488.685,2.537,1.105,4.171-.17,4.471-3.49,6.821-3.257,11.232.4-3.034,8.976-3.579,18.435-4.943,27.687-3.071,20.826-6.934,41.52-10.022,62.347-2.02,13.622-4.141,27.272-6.6,40.842-4.159,22.955-7.322,46.071-11.3,69.05-2.741,15.846-4.905,31.776-7.633,47.611-3.962,23-7.321,46.088-11.227,69.087-3.881,22.856-7.278,45.79-11.193,68.633-3.483,20.324-6.5,40.721-10.036,61.034-2.977,17.092-5.933,34.2-8.435,51.362-1.866,12.8-4.934,25.446-5.378,38.447-4.475-1.745-8.911-3.658-13.907-2.086a5.314,5.314,0,0,1-2.111-.264c-4.948-.744-9.894-1.5-14.843-2.234q-58.761-8.733-117.522-17.463-65.122-9.7-130.237-19.446-51.118-7.634-102.238-15.251C121.626,637.351,108.594,635.609,95.574,633.784Zm240.213-216.34a2.436,2.436,0,0,0,2.72-2.112c.609-3.072,1.345-6.126,1.786-9.223,1.6-11.261,2.991-22.554,4.677-33.8,2.045-13.641,4.5-27.223,6.439-40.878,3.177-22.381,6.105-44.8,10.074-67.059.509-2.853-.416-3.755-3.2-4.131-14.8-2-29.6-4.01-44.337-6.373q-20.432-3.274-40.908-6.252c-17.3-2.512-34.65-4.887-51.942-7.452-17.573-2.607-35.216-4.868-52.7-8.073-2.068-.379-3.14.2-3.352,2.573-.353,3.96-1.077,7.886-1.658,11.825Q160.4,266.745,157.4,287c-1.393,9.282-2.9,18.548-4.287,27.83q-3.7,24.679-7.322,49.37c-1.018,6.892-2.043,13.783-2.994,20.684-.354,2.567.16,4.106,3.474,4.413,6.358.59,12.648,1.9,18.973,2.874,10.262,1.577,20.524,3.157,30.8,4.669,14.91,2.195,29.837,4.281,44.742,6.512,7.734,1.158,15.4,2.89,23.161,3.721,13.588,1.454,27.021,3.9,40.542,5.772C314.767,414.265,325.026,415.856,335.787,417.444ZM552.229,266.082c.4.144,1.4-.192,1.762-1.575.427-1.617-.4-2.364-1.97-2.587-1.265-.18-2.5-.573-3.762-.762-11.246-1.689-22.5-3.336-33.743-5.033-9.56-1.443-19.108-2.971-28.671-4.4-13.214-1.973-26.442-3.855-39.655-5.84-7.6-1.142-15.137-2.753-22.766-3.543-11.468-1.188-22.774-3.4-34.191-4.886-10.291-1.341-20.526-3.108-30.793-4.637-14.626-2.178-29.264-4.274-43.887-6.471-13.922-2.092-27.818-4.356-41.748-6.384-15.053-2.192-30.226-3.688-45.177-6.415-18.482-3.372-37.251-4.776-55.638-8.659-1.039-.219-2.056-.509-2.418.855a2.5,2.5,0,0,0,.925,3.036,6.848,6.848,0,0,0,3.271.852c10.615,1.069,21.145,2.9,31.644,4.621,20.207,3.319,40.5,5.98,60.748,8.987,16.312,2.423,32.62,4.917,48.94,7.293,16.172,2.355,32.332,4.895,48.5,7.347,20.239,3.07,40.527,5.821,60.775,8.837,18.28,2.723,36.526,5.67,54.8,8.42,10.825,1.629,21.69,2.987,32.515,4.611C524.9,261.733,538.1,263.867,552.229,266.082ZM329.666,449.269c2.533-.126,5.627.208,6.261-3.421.531-3.038-1.786-3.918-4.2-4.282-13.641-2.054-27.292-4.043-40.935-6.09-14.762-2.215-29.5-4.617-44.285-6.651-9.586-1.319-19.095-3.172-28.681-4.369-15.525-1.939-30.941-4.56-46.42-6.777-9.432-1.351-18.825-2.975-28.247-4.4a4.42,4.42,0,0,0-5.353,3.774c-.475,2.411,1.3,3.553,3.557,3.906,5.337.835,10.664,1.739,16.011,2.511,18.3,2.642,36.6,5.245,54.865,8.076s36.592,5.3,54.843,8.248c13.473,2.178,27,4.029,40.5,6.055C314.89,446.95,322.193,448.111,329.666,449.269ZM304.814,620.216c2.891.366,5.024-.7,5.2-3.692.169-2.81-1.954-3.751-4.507-4.1-8.453-1.141-16.9-2.322-25.334-3.612-16.016-2.451-32.008-5.067-48.031-7.47-21.649-3.247-43.323-6.333-64.979-9.536q-25.1-3.712-50.172-7.55a3.34,3.34,0,0,0-4.039,2.358,3.808,3.808,0,0,0,2.14,5c2.532,1.249,5.318.865,7.982,1.272,14.333,2.193,28.652,4.474,42.984,6.666,14.894,2.278,29.8,4.481,44.7,6.73,9.7,1.464,19.384,3,29.087,4.414,9.56,1.4,19.144,2.634,28.7,4.037C280.644,616.513,292.726,618.386,304.814,620.216Zm17.93-122.874c2.309.1,5.18.107,5.362-3.137.168-2.992-2.053-4.332-5.035-4.635-4.242-.431-8.415-1.358-12.654-1.918-15.08-1.993-30.11-4.373-45.153-6.643-12.515-1.889-25.076-3.543-37.555-5.553-11.79-1.9-23.612-3.634-35.409-5.493-18.538-2.921-37.159-5.311-55.712-8.138-2.773-.422-5-.666-5.693,2.49-.72,3.277,1.636,4.679,4.284,5.357,1.631.418,3.426.142,5.114.4,17.991,2.75,35.965,5.606,53.963,8.311,19.683,2.958,39.388,5.778,59.08,8.678q20.256,2.983,40.5,6.018C303.4,494.5,312.966,495.9,322.743,497.342Zm-201,52.347c-1.344-.074-3.439.512-3.811,3.473-.356,2.829,1.6,3.794,3.839,4.223,2.929.562,5.9.888,8.853,1.341,10.259,1.575,20.483,3.447,30.783,4.678,17.093,2.043,34.087,4.827,51.081,7.431,16.854,2.582,33.751,5.075,50.594,7.782,15.272,2.454,30.6,4.918,46.021,6.6,3.15.343,5.411-.054,5.987-2.9.648-3.206-2.118-4.51-4.783-4.859-7.9-1.036-15.741-2.732-23.634-3.478-15.183-1.435-30.06-4.736-45.184-6.517-16.37-1.928-32.615-4.918-48.921-7.4q-22.35-3.406-44.715-6.712C139.548,552.12,131.229,551.013,121.74,549.689Zm202.679-70.407c3.029.023,5.867.669,6.314-2.859.442-3.485-2.165-4.251-4.81-4.786a46.878,46.878,0,0,0-5.047-.878c-13.048-1.178-25.874-3.886-38.841-5.627-10.287-1.382-20.516-3.184-30.788-4.686-18.434-2.7-36.886-5.259-55.319-7.964q-28.909-4.242-57.784-8.706c-2.686-.42-3.839,1.023-4.543,2.837-.815,2.1.608,3.408,2.491,4.309,2.413,1.155,5.045.871,7.561,1.294q17.458,2.942,34.966,5.589c15.043,2.264,30.113,4.347,45.16,6.585,11.816,1.758,23.609,3.671,35.423,5.444q19.823,2.975,39.666,5.82C307.593,476.918,316.326,478.134,324.419,479.281Zm-190.053.059c-3.092-.121-5.922-.034-6,3.24-.067,3,2.227,4.118,5.162,4.529,10.836,1.52,21.613,3.477,32.464,4.856,9.6,1.22,19.084,3.225,28.669,4.385,12.989,1.571,25.855,3.891,38.808,5.658,12.251,1.672,24.439,3.8,36.674,5.6,16.452,2.416,32.935,4.628,49.375,7.122,2.857.433,5.484.752,6.047-2.6.624-3.718-2.274-4.855-5.322-5.294-18.145-2.616-36.3-5.154-54.442-7.8-11.532-1.684-23.044-3.5-34.561-5.281-6.88-1.063-13.744-2.242-20.633-3.244-15.188-2.209-30.394-4.3-45.582-6.514C154.62,482.475,144.228,480.84,134.365,479.34Zm178.728,70.438c3.563-.1,6.876.615,7.309-3.245.367-3.266-2.641-3.921-4.939-4.286-13.766-2.187-27.563-4.189-41.351-6.24q-21.943-3.263-43.889-6.507c-10.267-1.533-20.526-3.123-30.794-4.654q-21.944-3.273-43.9-6.488-13.718-1.994-27.461-3.814c-2.447-.325-4.753.017-4.95,3.2-.184,2.98,1.98,3.929,4.343,4.35,3.359.6,6.764.932,10.137,1.455,9.979,1.547,19.939,3.217,29.93,4.681,15.2,2.226,30.42,4.257,45.615,6.495,7.74,1.14,15.423,2.669,23.163,3.811,15.193,2.241,30.414,4.293,45.611,6.5C292.617,546.6,303.293,548.284,313.094,549.778Zm-7.137,53.3c2.879-.273,5.814.73,6.02-3.142.2-3.773-2.291-4.45-5.257-4.682-1.555-.121-3.1-.353-4.646-.589-9.839-1.506-19.667-3.079-29.514-4.531-14.912-2.2-29.842-4.274-44.752-6.483-14.066-2.085-28.114-4.29-42.174-6.415-14.762-2.231-29.522-4.474-44.3-6.627q-10.762-1.568-21.574-2.788c-2.678-.3-4.485,1.051-4.417,3.954.062,2.659,1.781,3.569,4.272,3.761,3.683.284,7.364.7,11.016,1.255,9.979,1.517,19.9,3.53,29.923,4.618,13.167,1.429,26.086,4.328,39.227,5.894,12.139,1.447,24.2,3.57,36.3,5.366,13.218,1.963,26.443,3.876,39.66,5.842C286.012,600.039,296.274,601.614,305.957,603.079Zm-178.344-70.5c-3.606-.048-6.657-.38-7,3.167-.293,3.066,2.362,4.217,4.819,4.427,14.33,1.23,28.353,4.486,42.609,6.24,14.522,1.787,28.942,4.391,43.416,6.575,12.088,1.824,24.188,3.562,36.284,5.332q22.359,3.271,44.721,6.527,10.338,1.5,20.688,2.917c2.312.316,4.1-.625,4.433-2.981.331-2.321-1.245-3.8-3.327-4.348a65.522,65.522,0,0,0-7.14-1.235q-32.69-4.815-65.383-9.61c-15.042-2.222-30.076-4.5-45.117-6.733-13.637-2.026-27.321-3.781-40.9-6.125C146.042,535.068,136.342,533.7,127.613,532.584Zm5.013-35.209c-3.757-.079-6.777-.218-6.862,3.4-.083,3.518,2.643,4.079,5.649,4.376,5.371.53,10.708,1.413,16.049,2.223,9.846,1.494,19.674,3.1,29.526,4.554,14.911,2.2,29.846,4.239,44.751,6.475,11.674,1.751,23.3,3.8,34.979,5.531,15.33,2.279,30.664,4.556,46.041,6.466,5.5.683,10.874,2.383,16.491,2.159,1.946-.078,3.319-.949,3.751-2.872.41-1.83-.7-3.024-2.168-3.79a10.332,10.332,0,0,0-3.222-1.036c-7.452-1.1-14.922-2.085-22.372-3.2-9.848-1.472-19.676-3.073-29.525-4.535-12.935-1.921-25.89-3.712-38.822-5.651-9.846-1.476-19.663-3.15-29.508-4.636-13.356-2.017-26.725-3.946-40.091-5.9C148.708,499.686,140.12,498.457,132.626,497.375Zm51.581-382.221c-.252-.059-1.479.247-1.687,1.893s.994,2.151,2.411,2.359q20.476,3,40.948,6.023c18.155,2.656,36.32,5.247,54.469,7.95,18.288,2.724,36.522,5.834,54.849,8.253,18.617,2.458,37.094,5.81,55.736,8.129,15.8,1.965,31.455,5.043,47.213,7.366,20.825,3.07,41.755,5.483,62.516,8.921,21.195,3.51,42.5,6.242,63.7,9.618,1.226.2,2.384.561,2.584-1.125a2.223,2.223,0,0,0-2.185-2.634c-2.538-.341-5.09-.586-7.623-.956q-19.208-2.808-38.409-5.665-18.362-2.731-36.718-5.5-19.2-2.886-38.392-5.78-12.451-1.861-24.911-3.659c-11.819-1.724-23.647-3.385-35.456-5.171-10.829-1.638-21.629-3.472-32.46-5.1-12.935-1.943-25.9-3.7-38.832-5.643-11.815-1.772-23.6-3.766-35.418-5.5-14.911-2.192-29.859-4.13-44.766-6.349C216.315,120.273,200.879,117.764,184.207,115.154ZM391.9,267.385c-2.732-.446-4.6.735-4.948,3.414-.332,2.528,1.25,3.939,3.725,4.335.987.158,1.966.367,2.955.514q65.727,9.8,131.455,19.595c6.362.948,12.721,1.911,19.09,2.806,2.555.359,4.738-.375,5.134-3.221.381-2.732-1.168-4.258-3.9-4.6-1.418-.177-2.823-.451-4.237-.662q-48.55-7.237-97.1-14.467Q417.985,271.222,391.9,267.385Zm104.637,363.93c1.971.163,3-1.475,3.279-3.376a3.468,3.468,0,0,0-2.758-4.215c-3.762-.739-7.569-1.257-11.364-1.82-13.5-2-27-3.965-40.5-5.989-13.216-1.982-26.419-4.055-39.637-6.028-12.935-1.931-25.884-3.769-38.821-5.682-8.014-1.185-16.009-2.509-24.034-3.609-2.256-.309-4.428.433-4.853,3.084-.405,2.525.9,4.072,3.459,4.5,3.366.557,6.722,1.174,10.1,1.675,14.625,2.17,29.261,4.27,43.882,6.47,11.951,1.8,23.879,3.752,35.83,5.547,13.071,1.962,26.156,3.83,39.238,5.72C478.934,628.825,487.521,630.032,496.534,631.315Zm-148.458-66.1c-2.493-.125-4.878.313-5.018,3.3-.117,2.49,1.138,4.119,4.056,4.5,10,1.317,19.98,2.837,29.956,4.355,20.093,3.056,40.166,6.247,60.271,9.223,20.663,3.058,41.37,5.815,62.014,8.992,3.158.486,4.761-.527,5.621-2.989.785-2.245-2.027-4.876-5.052-5.055-15.51-.916-30.611-4.715-46.01-6.492-12.276-1.417-24.453-3.684-36.682-5.516-13.35-2-26.712-3.915-40.064-5.9C367.467,568.194,357.773,566.691,348.077,565.216Zm155.39,12.868c2.375,0,4-.945,4.27-3.361a3.581,3.581,0,0,0-3.18-4.311c-1.674-.333-3.354-.651-5.044-.891-14.774-2.1-29.625-3.765-44.308-6.377-17.079-3.038-34.29-5.166-51.4-7.968-17.51-2.867-35.139-5.178-52.716-7.736-2.51-.365-4.789.034-5.442,2.763-.645,2.7.827,4.319,3.587,4.755,5.192.819,10.37,1.738,15.57,2.5,11.526,1.693,23.073,3.244,34.592,4.987,11.1,1.681,22.17,3.613,33.275,5.288,15.174,2.288,30.37,4.432,45.556,6.646C486.665,575.611,495.1,576.857,503.466,578.084ZM340.9,617.618c-2.982-.148-5.543.216-5.662,3.777-.088,2.632,1.536,3.666,4.058,3.955,12.568,1.44,25.056,3.534,37.549,5.43,20.655,3.135,41.311,6.273,61.987,9.273,17.859,2.591,35.731,5.107,53.563,7.873,2.862.444,4.248-.845,4.842-2.908.752-2.612-1.048-3.88-3.5-4.295-6.588-1.114-13.158-2.353-19.764-3.345-11.52-1.73-23.068-3.267-34.592-4.969-9.7-1.433-19.385-3.026-29.086-4.477-13.208-1.975-26.428-3.866-39.638-5.824C360.676,620.629,350.7,619.1,340.9,617.618Zm195.15-264.661c2.444.43,4.3-.36,4.932-2.892.632-2.517-1.315-3.579-3.045-4.545a8.138,8.138,0,0,0-3.271-.957c-6.116-.454-12.118-1.631-18.168-2.551-20.528-3.123-41.12-5.817-61.658-8.872-23.632-3.514-47.236-7.22-70.845-10.891-2.647-.412-4.192.681-4.781,3.091-.644,2.634.757,4.065,3.256,4.53,3.217.6,6.433,1.214,9.669,1.69,14.774,2.174,29.562,4.253,44.331,6.464,9.846,1.475,19.657,3.185,29.5,4.665,13.218,1.987,26.456,3.843,39.682,5.776Q520.86,350.688,536.054,352.958ZM525.418,424.4c2.486.233,4.366-.422,4.654-3.207.269-2.61-.6-4.449-3.562-4.806-3.525-.425-7.034-.982-10.547-1.5-12.8-1.881-25.61-3.734-38.4-5.665-9.846-1.486-19.665-3.148-29.515-4.6-13.362-1.969-26.752-3.749-40.112-5.73-11.534-1.71-23.04-3.613-34.567-5.373-2.471-.377-4.253.621-4.637,3.257-.35,2.408.239,4.141,3.153,4.52,5.214.678,10.39,1.641,15.593,2.407,12.942,1.9,25.9,3.716,38.835,5.656,9.848,1.477,19.667,3.146,29.514,4.633,13.355,2.016,26.747,3.8,40.081,5.949C505.735,421.529,515.7,422.213,525.418,424.4ZM507.677,542.75c2.471.275,4.772-.13,5.186-3.063.429-3.041-1.323-4.27-4.245-4.64-5.356-.677-10.67-1.673-16.013-2.462-13.077-1.931-26.165-3.785-39.238-5.738-9.843-1.47-19.663-3.1-29.508-4.561-12.935-1.918-25.889-3.715-38.827-5.611-9.983-1.463-19.948-3.05-29.938-4.467-2.4-.34-3.7,1.452-4.265,3.425s.707,3.313,2.515,3.876a32.461,32.461,0,0,0,5.018,1.025c8.583,1.236,17.151,2.563,25.748,3.723,18.169,2.451,36.252,5.538,54.379,8.306,13.349,2.038,26.71,4,40.07,5.967C488.261,539.96,497.97,541.345,507.677,542.75ZM352.138,530c-1.6,0-3.265,1.38-3.863,3.585-.719,2.651,1.422,3.651,3.422,3.977q17.052,2.783,34.148,5.3c19.979,2.954,39.981,5.753,59.951,8.765,19.687,2.969,39.346,6.116,59.016,9.2,2.844.446,4.878-.456,5.394-3.429.468-2.7-1.166-3.888-3.624-4.282-6.88-1.1-13.746-2.3-20.636-3.331-13.217-1.983-26.451-3.85-39.67-5.825-9.709-1.451-19.4-3.048-29.106-4.489-13.077-1.941-26.167-3.789-39.25-5.689C369.616,532.576,361.316,531.349,352.138,530Zm19.043-118.608c-2.647-.277-5.041.822-5.442,3.187-.453,2.67,1.574,4.369,4.413,4.724,1.125.141,2.214.6,3.338.7,13.187,1.2,26.15,3.93,39.248,5.743,9.86,1.365,19.663,3.139,29.516,4.562,15.059,2.175,30.15,4.126,45.206,6.321,11.957,1.743,23.884,3.7,35.82,5.587,2.446.387,3.88-1.056,4.744-2.881.967-2.042-.884-3.172-2.236-4.086a11.425,11.425,0,0,0-4.864-1.482q-22.166-3.2-44.316-6.521-18.356-2.724-36.707-5.48c-14.758-2.207-29.537-4.287-44.264-6.68C387.491,413.767,379.2,413.442,371.181,411.395Zm9.715-71.261c-1.766-.089-4.188.3-4.425,3.572-.23,3.183,1.843,4.1,4.633,4.306,2.262.17,4.5.643,6.751.988,14.334,2.2,28.635,4.649,43.01,6.538C449.616,358,468.31,360.9,487,363.728c15.45,2.336,31.025,3.982,46.353,7.136,2.815.579,4.5-1.071,5.15-3.386.671-2.38-.966-3.724-3.232-4.123-5.04-.889-10.08-1.79-15.141-2.544-13.076-1.949-26.165-3.8-39.244-5.728q-21.312-3.138-42.615-6.344c-12.087-1.83-24.158-3.763-36.244-5.594C395.28,342.122,388.516,341.215,380.9,340.134Zm-21.741,154.7c-3.169-.18-5.612.2-5.77,3.185-.139,2.623,1.772,4.057,4.306,4.461C368.5,504.2,379.3,506,390.132,507.582c20.534,3,41.093,5.825,61.629,8.814,18.988,2.764,37.976,5.539,56.92,8.58,3.337.536,6.082.423,6.618-3.067.615-4-3.181-3.989-5.823-4.763a6.349,6.349,0,0,0-.854-.052c-9.284-1.332-18.574-2.62-27.849-4.016-13.636-2.052-27.253-4.228-40.892-6.263-14.9-2.223-29.822-4.313-44.726-6.52C382.922,498.483,370.7,496.586,359.154,494.83ZM530.06,388.481c2.642-.179,5.6.091,5.954-3.5.359-3.689-2.887-3.8-5.279-4.279-4.044-.8-8.152-1.283-12.235-1.883q-22.163-3.255-44.327-6.5c-12.243-1.814-24.475-3.7-36.719-5.506-12.943-1.911-25.895-3.761-38.841-5.653-6.615-.967-13.216-2.034-19.842-2.915-2.54-.338-4.671.521-4.88,3.489-.2,2.866,1.491,3.909,4.21,4.241,8.895,1.087,17.782,2.256,26.643,3.594,19.973,3.017,39.924,6.184,59.893,9.235,15.043,2.3,30.1,4.521,45.149,6.755C516.538,386.559,523.3,387.508,530.06,388.481ZM356.61,482.222c-.076,1.386,1.323,2.012,3.49,2.328,19.132,2.79,38.248,5.687,57.37,8.543q22.99,3.434,45.982,6.847c16.172,2.411,32.361,4.711,48.5,7.339,3.3.537,5.227-.622,5.923-3.281.768-2.936-1.611-3.877-4.095-4.25-6.323-.951-12.649-1.891-18.967-2.875-9.835-1.533-19.649-3.206-29.5-4.627-15.057-2.172-30.157-4.049-45.2-6.291-19.544-2.912-39.051-6.077-58.58-9.09C358.3,476.368,356.671,477.926,356.61,482.222ZM497.2,613.282c2.87.426,5.016-.616,5.209-3.608.181-2.811-1.934-3.745-4.481-4.122-5.2-.771-10.4-1.586-15.589-2.381-24.3-3.721-48.651-7.049-72.971-10.617q-31.419-4.609-62.8-9.494c-3.063-.48-5.436.138-6.005,3.051-.648,3.315,2.241,4.571,4.839,4.718,4.438.252,8.73,1.248,13.087,1.886,14.9,2.184,29.786,4.468,44.679,6.7q14.965,2.239,29.938,4.431,19.4,2.842,38.8,5.655C480.344,610.738,488.773,612.02,497.2,613.282ZM377.721,376.143c-2.814.384-6.379-.745-6.377,3.475,0,3.8,3.059,3.993,6.055,4.412,14.638,2.048,29.252,4.274,43.872,6.456,12.234,1.826,24.46,3.7,36.7,5.513q21.927,3.254,43.862,6.449c8.716,1.282,17.423,2.625,26.152,3.816,2.331.318,5.159.118,5.3-2.862.133-2.754-1.676-4.472-4.838-4.9-12.537-1.683-25.046-3.579-37.558-5.445-14.34-2.14-28.671-4.343-43.009-6.5q-24.67-3.708-49.345-7.378C391.5,378.138,384.468,377.128,377.721,376.143ZM261.935,154.291c5.866,1.914,3.9,5.123,2.172,8.279-1.03,1.879-2.067,3.755-3.131,5.615-2.137,3.737-4.295,7.463-6.866,11.925-1.633-7.327-2.946-13.606-4.454-19.838-.866-3.581-1.964-7.047,4.759-7.063-6.1-2.067-17.928-3.628-20.795-2.991,9.352,7.055,6.992,16.043-2.549,26.63-1.592-6.549-3.167-12.91-4.676-19.287-.8-3.384-2.674-7.171,2.754-8.838l-17.42-2.544c2.85,2.869,3.208,6.354,4,9.6,2.695,11.1,5.3,22.229,7.993,33.334.216.891.124,2.223,1.339,2.431,1.275.218,1.485-1.124,1.982-1.914,2.053-3.266,3.993-6.6,6.091-9.84,2.494-3.847,4.407-8.1,7.922-12.1,1.943,8.591,3.725,16.49,5.519,24.386.245,1.079.047,2.671,1.335,2.908,1.36.25,1.636-1.377,2.165-2.316,5.191-9.21,10.3-18.468,15.526-27.657,1.966-3.456,3.309-7.448,8.178-9.392A39.2,39.2,0,0,0,261.935,154.291ZM365.682,446.544c-2.7-.183-5.163.312-5.4,3.473-.227,3.021,1.952,4.067,4.682,4.44,5.51.752,11,1.673,16.5,2.495q33.854,5.056,67.713,10.085c8.888,1.314,17.788,2.547,26.688,3.778,2.634.364,4.731-.585,4.973-3.4.239-2.774-1.736-4-4.271-4.372-2.117-.313-4.237-.6-6.353-.915q-33.223-4.937-66.444-9.882Q384.722,449.411,365.682,446.544Zm117.9-136.121c2.284.205,4.286-.546,4.571-3.476.281-2.886-1.54-4.1-4.1-4.485-4.948-.742-9.9-1.434-14.854-2.17q-39.243-5.83-78.487-11.658c-2.838-.42-6.19-1.178-6.782,2.951-.571,3.983,2.566,4.41,5.562,4.848,12.448,1.819,24.882,3.74,37.325,5.591C445.626,304.821,464.436,307.592,483.579,310.423ZM426.768,203.114c-2.062-1.142-2.5-2.725-3.263-4.027-4.041-6.91-8.006-13.864-12.04-20.777-.561-.962-1.239-2.4-2.07-2.568a77.71,77.71,0,0,0-14.664-1.954c5.561,3.867,5.787,4.356,4.947,10.278-.923,6.51-1.711,13.045-2.878,19.511-.862,4.778.422,11.229-7.577,11.8l14.129,2c-2.8-1.855-5.492-3.244-4.967-7.026,1.2-8.686,2.507-17.358,3.946-27.254,4.354,7.3,8.068,13.516,11.768,19.74q5.643,9.493,11.255,18.986a2.788,2.788,0,0,0,1.518-2.528c1.491-10.039,3.021-20.073,4.419-30.125.583-4.19.873-8.423,7.162-8.261l-.543-1.048-13.071-1.98-.409,1c2.562.9,5.211,1.952,4.876,5.07C428.625,190.263,427.656,196.538,426.768,203.114Zm-62.529-19.2c-8.509-5.927-15.537-4.281-19.478,3.955a22.161,22.161,0,0,0-2.012,9.976c.119,10.917,7.46,15.517,17.028,10.631.428,3.044.45,3.349,1.524,3.272,3.545-.254,7.177.1,12-1.239-4.49-1.295-3.889-3.871-3.53-6.277,1.516-10.154,3.1-20.3,4.612-30.452.174-1.169,1.019-3.069-.594-3.363-3.844-.7-7.72-1.886-12.25-1.341C368.646,173.521,363.2,178.778,364.239,183.916Zm114.882,15.264-13.953-2.006c2.69,3.3,3.088,7.021,3.85,10.565,1.29,6,2.442,12.03,3.7,18.039.224,1.074.124,2.608,1.376,2.917,1.731.427,1.809-1.469,2.478-2.431a37.315,37.315,0,0,0,1.87-3.369c2.29-4.157,4.584-8.312,7.436-13.482,1.562,7.38,2.83,13.486,4.17,19.577.2.9.166,2.159,1.481,2.335s1.56-1.017,2.016-1.86c1.225-2.26,2.316-4.6,3.651-6.792,3.836-6.3,5.769-13.8,11.863-18.964-2.709-.364-5.229-1.3-8.066-.832,2.608,3.519,1.2,8.161-4.776,15.161.336-5.779-4.726-10.691-.016-16.178-4.5-.782-9.146-1.807-14.26-1.941,4.211,5.127,3.638,8.338-2.9,15.8C479.66,209.916,474.171,204.931,479.121,199.181ZM295.114,183.51c-.074-8.739-5.737-14.563-14.022-14.422-7.5.127-13.552,7.425-13.55,16.347,0,8.691,5.654,14.65,13.9,14.656C289.265,200.1,295.194,192.906,295.114,183.51ZM460.4,216.992a10.168,10.168,0,0,0-1.786.886c-2.436,2.271-5.082,4.022-8.42,2.016-3.429-2.061-4.217-5.523-4.339-9.25-.064-1.969.826-2.443,2.626-2.147,3.523.579,7.067,1.027,10.6,1.563,1.344.2,2.4.426,2.746-1.537.754-4.25-1.442-10.043-5.047-12.551a11.214,11.214,0,0,0-12.529.3c-5.893,3.93-7.494,9.917-7.2,16.471.309,6.861,4.053,11.115,10,12.133C452.659,225.836,457.4,223.219,460.4,216.992ZM327.971,164.257c4.421,1.489,3.952,4.1,3.573,6.659q-2.063,13.967-4.143,27.931c-.4,2.7-.833,5.354-4.149,6.689l14.919,2.169c-3.228-2.562-2.335-5.684-1.877-8.708q2.307-15.227,4.6-30.455c.23-1.53.812-3.278-1.713-3.448C335.945,164.875,332.8,163.673,327.971,164.257Zm181.257,59.4c-.3,2.925-.624,5.848-.874,8.778-.063.735.293,1.671,1.18,1.045,1.916-1.352,3.235.118,4.707.756,5.022,2.176,9.543,1.341,12.365-2.36,3.006-3.941,2.7-8.663-1.013-12.818-2.278-2.548-4.813-4.864-7.134-7.376-.877-.949-1.52-2.152-.405-3.44a3.027,3.027,0,0,1,3.849-.843,8.744,8.744,0,0,1,4.144,4.144c.706,1.318.6,3.1,2.352,4.127,1.031-3.2,1.085-6.328.908-10.77-2.218,3.275-3.667,1.521-5.287.7-4.436-2.241-8.909-1.45-11.62,1.979-2.791,3.531-2.739,8,.43,11.757,2.017,2.391,4.394,4.475,6.558,6.746,1.58,1.658,2.777,3.691.929,5.663-2.04,2.176-4.17.821-6.045-.682C511.932,229.194,511.266,226.337,509.228,223.66ZM300.446,172.688c4.235,4.489,1.2,25.018-3.843,28.892l15.459,2.212c-.766-1.979-2.978-1.931-2.8-3.759.569-5.958.57-12.071,3.757-17.423,1.4-2.356,3.244-3.11,5.436-.511a3.484,3.484,0,0,0,4.628.993c1.736-.971,2.112-2.646,2.071-4.413-.07-3.025-2.379-4.265-5.9-3.577-2.457.48-3.865,2.91-6.692,3.27.9-3.711-1.28-4.461-4.149-4.69C306.014,173.489,303.634,173.094,300.446,172.688Z" transform="translate(-57.515 -70.478)"/><path class="cls-2" d="M626.494,189.021C622.174,210.015,617.813,231,613.543,252q-19.727,97.051-39.392,194.115Q549.086,569.862,524.146,693.63c-.6,2.98-1.679,3.865-4.478,3.119-1.361-.363-2.784-.494-4.179-.73.444-13,3.512-25.645,5.378-38.447,2.5-17.166,5.458-34.269,8.435-51.362,3.539-20.313,6.553-40.71,10.036-61.034,3.915-22.843,7.312-45.776,11.193-68.633,3.906-23,7.265-46.09,11.227-69.087,2.728-15.835,4.892-31.765,7.633-47.611,3.975-22.978,7.138-46.094,11.3-69.05,2.459-13.57,4.58-27.22,6.6-40.842,3.088-20.826,6.951-41.52,10.022-62.347,1.365-9.253,1.909-18.711,4.943-27.687,6.594-.606,12.559,1.529,18.367,4.275a5.257,5.257,0,0,1,2.6,3.26C625.558,174.449,627.79,181.47,626.494,189.021Z" transform="translate(-57.515 -70.478)"/><path class="cls-2" d="M517.686,144.2c-6.215,1.494-12.078-1-18.061-1.777-15.2-1.966-30.348-4.31-45.483-6.72-16.411-2.613-32.912-4.575-49.3-7.388-14.97-2.57-30.1-4.187-45.144-6.354-9.842-1.418-19.641-3.133-29.477-4.6-12.781-1.9-25.547-3.848-38.449-4.926-7.342-.614-14.645-1.876-22.008-2.535-10.324-.923-20.472-3.462-30.91-3.4a4.623,4.623,0,0,1-1.552-.619c2.066.184,3.264-.581,4.043-2.684,2.459-6.636,5.307-13.129,7.7-19.786.959-2.667,2.325-3.082,4.76-2.387,2.159.616,4.4.934,6.609,1.383,18.64,5.386,37.707,9,56.532,13.625,23.629,5.8,47.235,11.709,70.94,17.186,10.118,2.338,20.228,4.72,30.366,6.967,4.618,1.024,9.014,3.343,13.957,2.729,27.868,7.925,56.261,13.712,84.357,20.706A5.37,5.37,0,0,1,517.686,144.2Z" transform="translate(-57.515 -70.478)"/><path class="cls-2" d="M67.954,585.869c4.505-9.513,7.489-19.607,11.142-29.442,7.168-19.3,14.068-38.7,21.037-58.075.757-2.106,1.236-4.312,1.85-6.491,1.7.4,1.3,1.6,1.172,2.452-3.032,19.926-6.474,39.8-9.063,59.779-2.207,17.035-5.965,33.846-7.195,51.015a16.034,16.034,0,0,1-.934,3.252c-6.827-1.337-13.637-2.775-20.49-3.963-2.8-.486-2.905-1.612-2.078-4.008C65.047,595.6,67.586,591.066,67.954,585.869Z" transform="translate(-57.515 -70.478)"/><path class="cls-3" d="M432.21,122.911c-4.943.614-9.338-1.705-13.957-2.729-10.138-2.248-20.248-4.63-30.366-6.967-23.7-5.477-47.311-11.384-70.94-17.186-18.825-4.622-37.892-8.239-56.532-13.625,1.592-3.2,3.309-6.335,4.729-9.6.893-2.056,1.814-2.787,4.182-2.03q81.055,25.915,162.152,51.7A3.621,3.621,0,0,1,432.21,122.911Z" transform="translate(-57.515 -70.478)"/><path class="cls-4" d="M335.787,417.444c-10.761-1.588-21.021-3.179-31.3-4.6-13.521-1.87-26.954-4.317-40.542-5.772-7.764-.831-15.427-2.563-23.161-3.721-14.9-2.231-29.832-4.317-44.742-6.512-10.272-1.512-20.534-3.093-30.8-4.669-6.325-.972-12.615-2.284-18.973-2.874-3.314-.307-3.828-1.846-3.474-4.413.951-6.9,1.976-13.792,2.994-20.684q3.647-24.687,7.322-49.37c1.392-9.282,2.895-18.548,4.287-27.83q3.038-20.248,5.99-40.508c.581-3.939,1.3-7.866,1.658-11.825.212-2.375,1.284-2.952,3.352-2.573,17.488,3.2,35.131,5.465,52.7,8.073,17.292,2.566,34.637,4.94,51.942,7.452q20.462,2.97,40.908,6.252c14.741,2.362,29.541,4.37,44.337,6.373,2.779.376,3.7,1.278,3.2,4.131-3.969,22.26-6.9,44.678-10.074,67.059-1.939,13.655-4.393,27.237-6.439,40.878-1.686,11.248-3.074,22.541-4.677,33.8-.441,3.1-1.177,6.151-1.786,9.223A2.436,2.436,0,0,1,335.787,417.444ZM207.2,340.138l.8.837c.11,1.4-.288,3.273,1.117,3.932,4.315,2.024,4.4,6.327,5.6,9.934,1.618,4.849,2.621,9.9,4.219,14.76,3.809,11.584,1.088,10.934,14,8.5,3.433-.648,3.86-2.236,3.136-5.038-.889-3.442-2-6.853-2.542-10.351-.842-5.442-3.135-10.541-1.018-16.607.976-2.8,3.6-4.078,3.937-6.825a29.719,29.719,0,0,0,2.981-.07,143.039,143.039,0,0,1,33.329-.154c7.794.878,15.187,3.351,22.872,4.526.538,2.791,2.341,3.941,4.972,3.283,2.85-.714,3.088-3.1,2.66-5.494q-1.347-7.536-2.91-15.033a12.84,12.84,0,0,1,.94-8.686c3.154-6.438,1.769-15.282-3.352-20.188-2.7-2.59-3.562-5.59-4.028-9.047-.643-4.768-1.593-9.494-2.34-14.249-.391-2.493-1.264-4.506-4.205-4.374-3.239.145-3.859,2.388-3.719,5.1-7.187,3.322-13.061,8.82-20.278,12.124a143.656,143.656,0,0,1-33.79,11.079,7.31,7.31,0,0,0-4.978-.816c-6.032.925-12.037,2.038-18.081,2.875-4.073.564-5.976,2.318-4.5,6.549-3.466,2.591-6.327,5.528-5.93,10.336l-.052,3.378c-1.472.961-2.476,1.9.106,2.7l-.088,4.04c.093.932.447,1.678,1.491,1.783,3.617.364,5.212,1.478,1.794,4.6-.693.632-.337,1.352.17,1.874,2.169,2.228,4.076,4.913,7.721,4.75Z" transform="translate(-57.515 -70.478)"/><path class="cls-5" d="M552.229,266.082c-14.133-2.215-27.325-4.349-40.539-6.332-10.825-1.624-21.691-2.982-32.515-4.611-18.276-2.75-36.522-5.7-54.8-8.42-20.248-3.017-40.536-5.767-60.775-8.837-16.165-2.452-32.325-4.992-48.5-7.347-16.319-2.376-32.628-4.871-48.94-7.293-20.245-3.007-40.542-5.668-60.748-8.987-10.5-1.725-21.029-3.552-31.644-4.621a6.848,6.848,0,0,1-3.271-.852,2.5,2.5,0,0,1-.925-3.036c.361-1.364,1.378-1.075,2.418-.855,18.387,3.883,37.156,5.287,55.638,8.659,14.951,2.728,30.124,4.223,45.177,6.415,13.931,2.028,27.827,4.292,41.748,6.384,14.623,2.2,29.261,4.293,43.887,6.471,10.267,1.529,20.5,3.3,30.793,4.637,11.417,1.488,22.723,3.7,34.191,4.886,7.629.79,15.17,2.4,22.766,3.543,13.212,1.986,26.441,3.867,39.655,5.84,9.563,1.428,19.11,2.956,28.671,4.4,11.245,1.7,22.5,3.344,33.743,5.033,1.264.19,2.5.583,3.762.762,1.567.223,2.4.97,1.97,2.587C553.626,265.891,552.629,266.226,552.229,266.082Z" transform="translate(-57.515 -70.478)"/><path class="cls-5" d="M329.666,449.269c-7.472-1.158-14.776-2.319-22.088-3.417-13.5-2.027-27.024-3.877-40.5-6.055-18.251-2.951-36.574-5.416-54.843-8.248s-36.569-5.434-54.865-8.076c-5.346-.772-10.673-1.676-16.011-2.511-2.253-.353-4.031-1.495-3.557-3.906a4.42,4.42,0,0,1,5.353-3.774c9.422,1.423,18.815,3.047,28.247,4.4,15.479,2.216,30.895,4.838,46.42,6.777,9.586,1.2,19.094,3.05,28.681,4.369,14.787,2.035,29.523,4.437,44.285,6.651,13.642,2.047,27.293,4.036,40.935,6.09,2.415.363,4.732,1.244,4.2,4.282C335.292,449.477,332.2,449.143,329.666,449.269Z" transform="translate(-57.515 -70.478)"/><path class="cls-5" d="M304.814,620.216c-12.088-1.831-24.17-3.7-36.266-5.479-9.559-1.4-19.143-2.641-28.7-4.037-9.7-1.418-19.39-2.95-29.087-4.414-14.9-2.249-29.8-4.452-44.7-6.73-14.333-2.192-28.652-4.473-42.984-6.666-2.664-.407-5.45-.023-7.982-1.272a3.808,3.808,0,0,1-2.14-5,3.34,3.34,0,0,1,4.039-2.358q25.082,3.8,50.172,7.55c21.656,3.2,43.33,6.289,64.979,9.536,16.023,2.4,32.015,5.019,48.031,7.47,8.432,1.29,16.881,2.471,25.334,3.612,2.553.345,4.676,1.286,4.507,4.1C309.837,619.512,307.7,620.582,304.814,620.216Z" transform="translate(-57.515 -70.478)"/><path class="cls-5" d="M322.743,497.342c-9.777-1.441-19.342-2.844-28.9-4.262q-20.253-3-40.5-6.018c-19.692-2.9-39.4-5.719-59.08-8.678-18-2.7-35.972-5.561-53.963-8.311-1.688-.258-3.483.017-5.114-.4-2.648-.678-5-2.08-4.284-5.357.693-3.156,2.92-2.913,5.693-2.49,18.554,2.827,37.175,5.217,55.712,8.138,11.8,1.859,23.619,3.593,35.409,5.493,12.479,2.01,25.04,3.664,37.555,5.553,15.043,2.27,30.073,4.649,45.153,6.643,4.239.56,8.413,1.487,12.654,1.918,2.982.3,5.2,1.643,5.035,4.635C327.923,497.449,325.053,497.442,322.743,497.342Z" transform="translate(-57.515 -70.478)"/><path class="cls-5" d="M121.74,549.689c9.49,1.324,17.808,2.432,26.109,3.655q22.366,3.3,44.715,6.712c16.306,2.485,32.55,5.475,48.921,7.4,15.125,1.781,30,5.082,45.184,6.517,7.893.746,15.732,2.443,23.634,3.478,2.666.349,5.431,1.653,4.783,4.859-.575,2.846-2.836,3.244-5.987,2.9-15.419-1.678-30.749-4.142-46.021-6.6-16.842-2.706-33.739-5.2-50.594-7.782-16.994-2.6-33.988-5.388-51.081-7.431-10.3-1.231-20.524-3.1-30.783-4.678-2.95-.453-5.924-.779-8.853-1.341-2.235-.429-4.195-1.394-3.839-4.223C118.3,550.2,120.4,549.615,121.74,549.689Z" transform="translate(-57.515 -70.478)"/><path class="cls-5" d="M324.419,479.281c-8.093-1.148-16.826-2.363-25.552-3.628q-19.838-2.877-39.666-5.82c-11.814-1.773-23.607-3.686-35.423-5.444-15.047-2.238-30.117-4.321-45.16-6.585q-17.507-2.635-34.966-5.589c-2.516-.424-5.148-.14-7.561-1.294-1.883-.9-3.306-2.21-2.491-4.309.7-1.813,1.857-3.256,4.543-2.837q28.868,4.511,57.784,8.706c18.432,2.7,36.885,5.268,55.319,7.964,10.272,1.5,20.5,3.3,30.788,4.686,12.967,1.742,25.792,4.45,38.841,5.627a46.878,46.878,0,0,1,5.047.878c2.646.535,5.252,1.3,4.81,4.786C330.286,479.95,327.447,479.3,324.419,479.281Z" transform="translate(-57.515 -70.478)"/><path class="cls-5" d="M134.365,479.34c9.863,1.5,20.254,3.135,30.663,4.65,15.188,2.211,30.394,4.3,45.582,6.514,6.889,1,13.752,2.181,20.633,3.244,11.517,1.78,23.029,3.6,34.561,5.281,18.14,2.648,36.3,5.187,54.442,7.8,3.048.439,5.946,1.576,5.322,5.294-.563,3.354-3.19,3.035-6.047,2.6-16.44-2.495-32.923-4.707-49.375-7.122-12.235-1.8-24.423-3.926-36.674-5.6-12.953-1.768-25.819-4.087-38.808-5.658-9.585-1.16-19.066-3.164-28.669-4.385-10.852-1.379-21.629-3.336-32.464-4.856-2.934-.412-5.229-1.53-5.162-4.529C128.444,479.306,131.273,479.219,134.365,479.34Z" transform="translate(-57.515 -70.478)"/><path class="cls-5" d="M313.094,549.778c-9.8-1.494-20.476-3.181-31.171-4.736-15.2-2.21-30.418-4.262-45.611-6.5-7.74-1.142-15.423-2.671-23.163-3.811-15.194-2.238-30.419-4.269-45.615-6.495-9.991-1.464-19.951-3.134-29.93-4.681-3.373-.523-6.778-.857-10.137-1.455-2.363-.42-4.527-1.369-4.343-4.35.2-3.185,2.5-3.527,4.95-3.2q13.741,1.827,27.461,3.814,21.956,3.191,43.9,6.488c10.268,1.531,20.526,3.121,30.794,4.654q21.942,3.275,43.889,6.507c13.788,2.05,27.584,4.052,41.351,6.24,2.3.365,5.306,1.02,4.939,4.286C319.969,550.393,316.657,549.676,313.094,549.778Z" transform="translate(-57.515 -70.478)"/><path class="cls-5" d="M305.957,603.079c-9.683-1.465-19.945-3.04-30.215-4.567-13.217-1.966-26.442-3.879-39.66-5.842-12.1-1.8-24.156-3.92-36.3-5.366-13.141-1.566-26.06-4.465-39.227-5.894-10.023-1.088-19.944-3.1-29.923-4.618-3.652-.555-7.333-.971-11.016-1.255-2.492-.192-4.21-1.1-4.272-3.761-.068-2.9,1.739-4.255,4.417-3.954q10.807,1.215,21.574,2.788c14.773,2.152,29.534,4.4,44.3,6.627,14.06,2.125,28.108,4.33,42.174,6.415,14.91,2.21,29.84,4.284,44.752,6.483,9.847,1.452,19.675,3.025,29.514,4.531,1.543.236,3.091.468,4.646.589,2.966.231,5.458.908,5.257,4.682C311.772,603.809,308.836,602.806,305.957,603.079Z" transform="translate(-57.515 -70.478)"/><path class="cls-5" d="M127.613,532.584c8.729,1.118,18.429,2.484,28.1,4.154,13.582,2.344,27.266,4.1,40.9,6.125,15.04,2.234,30.074,4.511,45.117,6.733q32.688,4.828,65.383,9.61a65.522,65.522,0,0,1,7.14,1.235c2.082.548,3.659,2.026,3.327,4.348-.336,2.356-2.121,3.3-4.433,2.981q-10.35-1.416-20.688-2.917-22.363-3.244-44.721-6.527c-12.1-1.77-24.2-3.508-36.284-5.332-14.474-2.184-28.894-4.788-43.416-6.575-14.256-1.754-28.279-5.01-42.609-6.24-2.457-.211-5.112-1.361-4.819-4.427C120.956,532.2,124.007,532.536,127.613,532.584Z" transform="translate(-57.515 -70.478)"/><path class="cls-5" d="M132.626,497.375c7.494,1.082,16.082,2.311,24.666,3.565,13.366,1.952,26.735,3.882,40.091,5.9,9.845,1.486,19.661,3.16,29.508,4.636,12.932,1.939,25.887,3.73,38.822,5.651,9.849,1.462,19.678,3.064,29.525,4.535,7.45,1.113,14.92,2.1,22.372,3.2a10.332,10.332,0,0,1,3.222,1.036c1.465.766,2.579,1.961,2.168,3.79-.431,1.924-1.8,2.794-3.751,2.872-5.617.224-10.989-1.476-16.491-2.159-15.378-1.91-30.712-4.188-46.041-6.466-11.676-1.735-23.306-3.78-34.979-5.531-14.905-2.236-29.84-4.276-44.751-6.475-9.852-1.453-19.68-3.06-29.526-4.554-5.34-.81-10.678-1.693-16.049-2.223-3.006-.3-5.732-.858-5.649-4.376C125.849,497.157,128.869,497.3,132.626,497.375Z" transform="translate(-57.515 -70.478)"/><path class="cls-5" d="M184.207,115.154c16.671,2.61,32.108,5.118,47.574,7.421,14.907,2.22,29.855,4.157,44.766,6.349,11.82,1.738,23.6,3.732,35.418,5.5,12.935,1.94,25.9,3.7,38.832,5.643,10.831,1.627,21.631,3.461,32.46,5.1,11.809,1.786,23.637,3.447,35.456,5.171q12.458,1.817,24.911,3.659,19.2,2.869,38.392,5.78,18.358,2.76,36.718,5.5,19.2,2.856,38.409,5.665c2.533.37,5.085.615,7.623.956a2.223,2.223,0,0,1,2.185,2.634c-.2,1.687-1.359,1.32-2.584,1.125-21.208-3.376-42.51-6.109-63.7-9.618-20.762-3.438-41.691-5.851-62.516-8.921-15.758-2.323-31.415-5.4-47.213-7.366-18.642-2.319-37.119-5.671-55.736-8.129-18.327-2.42-36.562-5.53-54.849-8.253-18.148-2.7-36.313-5.294-54.469-7.95q-20.476-3-40.948-6.023c-1.418-.208-2.621-.709-2.411-2.359S183.956,115.1,184.207,115.154Z" transform="translate(-57.515 -70.478)"/><path class="cls-6" d="M391.9,267.385q26.085,3.856,52.17,7.715,48.553,7.22,97.1,14.467c1.414.211,2.819.484,4.237.662,2.733.342,4.282,1.867,3.9,4.6-.4,2.847-2.579,3.58-5.134,3.221-6.369-.9-12.729-1.858-19.09-2.806q-65.728-9.793-131.455-19.595c-.988-.147-1.968-.356-2.955-.514-2.474-.4-4.057-1.807-3.725-4.335C387.3,268.121,389.165,266.939,391.9,267.385Z" transform="translate(-57.515 -70.478)"/><path class="cls-5" d="M496.534,631.315c-9.014-1.283-17.6-2.49-26.181-3.73-13.082-1.89-26.167-3.758-39.238-5.72-11.952-1.794-23.879-3.748-35.83-5.547-14.621-2.2-29.257-4.3-43.882-6.47-3.374-.5-6.73-1.117-10.1-1.675-2.558-.423-3.864-1.97-3.459-4.5.425-2.651,2.6-3.393,4.853-3.084,8.025,1.1,16.02,2.424,24.034,3.609,12.938,1.913,25.886,3.751,38.821,5.682,13.218,1.973,26.42,4.045,39.637,6.028,13.495,2.024,27,3.985,40.5,5.989,3.8.564,7.6,1.082,11.364,1.82a3.468,3.468,0,0,1,2.758,4.215C499.537,629.839,498.506,631.478,496.534,631.315Z" transform="translate(-57.515 -70.478)"/><path class="cls-5" d="M348.076,565.215c9.7,1.476,19.391,2.979,29.093,4.424,13.351,1.988,26.714,3.9,40.064,5.9,12.229,1.832,24.406,4.1,36.682,5.516,15.4,1.777,30.5,5.576,46.01,6.492,3.024.179,5.836,2.81,5.052,5.055-.861,2.462-2.463,3.475-5.621,2.989-20.644-3.177-41.351-5.934-62.014-8.992-20.1-2.975-40.178-6.166-60.271-9.223-9.976-1.517-19.953-3.038-29.956-4.355-2.917-.384-4.173-2.014-4.056-4.5C343.2,565.529,345.583,565.091,348.076,565.215Z" transform="translate(-57.515 -70.478)"/><path class="cls-5" d="M503.466,578.084c-8.365-1.228-16.8-2.473-25.241-3.7-15.186-2.213-30.381-4.358-45.556-6.646-11.1-1.674-22.171-3.607-33.275-5.288-11.518-1.744-23.065-3.294-34.592-4.987-5.2-.764-10.378-1.682-15.57-2.5-2.76-.436-4.232-2.059-3.587-4.755.653-2.729,2.932-3.128,5.442-2.763,17.577,2.557,35.206,4.869,52.716,7.736,17.112,2.8,34.323,4.93,51.4,7.968,14.683,2.611,29.533,4.277,44.308,6.377,1.689.24,3.369.558,5.044.891a3.581,3.581,0,0,1,3.18,4.311C507.462,577.14,505.841,578.08,503.466,578.084Z" transform="translate(-57.515 -70.478)"/><path class="cls-5" d="M340.9,617.618c9.8,1.481,19.772,3.011,29.755,4.491,13.21,1.959,26.431,3.849,39.638,5.824,9.7,1.451,19.382,3.044,29.086,4.477,11.524,1.7,23.072,3.239,34.592,4.969,6.606.992,13.176,2.231,19.764,3.345,2.453.415,4.253,1.683,3.5,4.295-.593,2.062-1.98,3.351-4.842,2.908-17.832-2.766-35.7-5.281-53.563-7.873-20.676-3-41.332-6.137-61.987-9.273-12.494-1.9-24.982-3.99-37.549-5.43-2.522-.289-4.146-1.323-4.058-3.955C335.361,617.835,337.922,617.471,340.9,617.618Z" transform="translate(-57.515 -70.478)"/><path class="cls-5" d="M536.054,352.958q-15.2-2.247-30.4-4.491c-13.226-1.933-26.464-3.789-39.682-5.776-9.846-1.48-19.656-3.191-29.5-4.665-14.768-2.212-29.557-4.29-44.331-6.464-3.236-.476-6.452-1.091-9.669-1.69-2.5-.465-3.9-1.9-3.256-4.53.589-2.41,2.133-3.5,4.781-3.091,23.609,3.671,47.213,7.377,70.845,10.891,20.538,3.054,41.131,5.749,61.658,8.872,6.05.92,12.052,2.1,18.168,2.551a8.138,8.138,0,0,1,3.271.957c1.73.966,3.677,2.028,3.045,4.545C540.351,352.6,538.5,353.388,536.054,352.958Z" transform="translate(-57.515 -70.478)"/><path class="cls-5" d="M525.418,424.4c-9.72-2.19-19.683-2.874-29.515-4.458-13.334-2.148-26.725-3.933-40.081-5.949-9.847-1.487-19.666-3.156-29.514-4.633-12.937-1.94-25.893-3.752-38.835-5.656-5.2-.765-10.379-1.729-15.593-2.407-2.915-.379-3.5-2.112-3.153-4.52.384-2.637,2.166-3.634,4.637-3.257,11.527,1.76,23.033,3.663,34.567,5.373,13.36,1.981,26.75,3.76,40.112,5.73,9.85,1.452,19.67,3.114,29.515,4.6,12.8,1.931,25.6,3.784,38.4,5.665,3.513.516,7.022,1.073,10.547,1.5,2.961.358,3.831,2.2,3.562,4.806C529.784,423.981,527.9,424.635,525.418,424.4Z" transform="translate(-57.515 -70.478)"/><path class="cls-5" d="M507.677,542.75c-9.706-1.405-19.416-2.791-29.118-4.22-13.36-1.968-26.721-3.929-40.07-5.967-18.127-2.768-36.21-5.854-54.379-8.306-8.6-1.16-17.165-2.487-25.748-3.723a32.461,32.461,0,0,1-5.018-1.025c-1.808-.563-3.083-1.906-2.515-3.876s1.868-3.765,4.265-3.425c9.989,1.417,19.955,3,29.938,4.467,12.939,1.9,25.892,3.692,38.827,5.611,9.845,1.46,19.664,3.091,29.508,4.561,13.073,1.953,26.161,3.807,39.238,5.738,5.343.789,10.657,1.785,16.013,2.462,2.922.369,4.674,1.6,4.245,4.64C512.448,542.621,510.148,543.025,507.677,542.75Z" transform="translate(-57.515 -70.478)"/><path class="cls-5" d="M352.138,530c9.178,1.346,17.479,2.573,25.782,3.779,13.083,1.9,26.174,3.748,39.25,5.689,9.71,1.441,19.4,3.038,29.106,4.489,13.218,1.975,26.453,3.842,39.67,5.825,6.89,1.034,13.756,2.227,20.636,3.331,2.458.394,4.092,1.585,3.624,4.282-.516,2.973-2.55,3.875-5.394,3.429-19.669-3.084-39.329-6.231-59.016-9.2-19.97-3.012-39.972-5.811-59.951-8.765q-17.092-2.528-34.148-5.3c-2-.326-4.141-1.326-3.422-3.977C348.873,531.383,350.539,530.006,352.138,530Z" transform="translate(-57.515 -70.478)"/><path class="cls-5" d="M371.181,411.395c8.021,2.047,16.31,2.372,24.455,3.7,14.728,2.393,29.507,4.472,44.264,6.68q18.353,2.745,36.707,5.48,22.154,3.287,44.316,6.521a11.425,11.425,0,0,1,4.864,1.482c1.352.914,3.2,2.044,2.236,4.086-.864,1.825-2.3,3.269-4.744,2.881-11.935-1.891-23.862-3.844-35.82-5.587-15.056-2.195-30.147-4.146-45.206-6.321-9.853-1.423-19.656-3.2-29.516-4.562-13.1-1.814-26.061-4.541-39.248-5.743-1.125-.1-2.214-.562-3.338-.7-2.839-.355-4.867-2.054-4.413-4.724C366.14,412.217,368.534,411.118,371.181,411.395Z" transform="translate(-57.515 -70.478)"/><path class="cls-5" d="M380.9,340.134c7.62,1.081,14.384,1.988,21.131,3.01,12.086,1.831,24.157,3.764,36.244,5.594q21.3,3.225,42.615,6.344c13.079,1.926,26.169,3.779,39.244,5.728,5.061.754,10.1,1.655,15.141,2.544,2.266.4,3.9,1.743,3.232,4.123-.652,2.315-2.335,3.965-5.15,3.386-15.329-3.154-30.9-4.8-46.353-7.136-18.688-2.825-37.382-5.725-56.134-8.19-14.375-1.889-28.676-4.339-43.01-6.538-2.249-.345-4.489-.818-6.751-.988-2.79-.21-4.864-1.123-4.633-4.306C376.707,340.435,379.129,340.045,380.9,340.134Z" transform="translate(-57.515 -70.478)"/><path class="cls-5" d="M359.154,494.83c11.546,1.756,23.767,3.654,36,5.465,14.9,2.207,29.824,4.3,44.726,6.52,13.639,2.035,27.256,4.211,40.892,6.263,9.274,1.4,18.565,2.684,27.849,4.016a6.349,6.349,0,0,1,.854.052c2.642.773,6.437.758,5.823,4.763-.536,3.491-3.28,3.6-6.618,3.067-18.945-3.041-37.932-5.816-56.92-8.58-20.536-2.989-41.1-5.812-61.629-8.814C379.3,506,368.5,504.2,357.69,502.475c-2.535-.4-4.445-1.838-4.306-4.461C353.542,495.032,355.985,494.649,359.154,494.83Z" transform="translate(-57.515 -70.478)"/><path class="cls-5" d="M530.06,388.481c-6.759-.973-13.521-1.922-20.276-2.924-15.052-2.234-30.106-4.457-45.149-6.755-19.968-3.051-39.919-6.218-59.893-9.235-8.86-1.339-17.748-2.507-26.643-3.594-2.719-.332-4.412-1.375-4.21-4.241.209-2.968,2.34-3.827,4.88-3.489,6.626.881,13.227,1.949,19.842,2.915,12.946,1.892,25.9,3.742,38.841,5.653,12.244,1.808,24.476,3.693,36.719,5.506q22.159,3.282,44.327,6.5c4.084.6,8.192,1.081,12.235,1.883,2.391.474,5.637.589,5.279,4.279C535.664,388.572,532.7,388.3,530.06,388.481Z" transform="translate(-57.515 -70.478)"/><path class="cls-5" d="M356.61,482.222c.061-4.3,1.691-5.855,4.919-5.357,19.529,3.013,39.036,6.177,58.58,9.09,15.046,2.242,30.146,4.119,45.2,6.291,9.851,1.421,19.665,3.094,29.5,4.627,6.318.985,12.644,1.924,18.967,2.875,2.484.374,4.863,1.315,4.095,4.25-.7,2.659-2.626,3.817-5.923,3.281-16.136-2.627-32.326-4.928-48.5-7.339q-22.991-3.428-45.982-6.847c-19.122-2.856-38.238-5.753-57.37-8.543C357.933,484.235,356.534,483.609,356.61,482.222Z" transform="translate(-57.515 -70.478)"/><path class="cls-5" d="M497.2,613.282c-8.431-1.263-16.86-2.544-25.295-3.783q-19.395-2.849-38.8-5.655-14.972-2.194-29.938-4.431c-14.894-2.229-29.779-4.512-44.679-6.7-4.357-.639-8.649-1.635-13.087-1.886-2.6-.147-5.487-1.4-4.839-4.718.57-2.913,2.942-3.531,6.005-3.051q31.372,4.916,62.8,9.494c24.32,3.567,48.675,6.9,72.971,10.617,5.191.8,10.39,1.61,15.589,2.381,2.547.377,4.662,1.311,4.481,4.122C502.22,612.666,500.074,613.708,497.2,613.282Z" transform="translate(-57.515 -70.478)"/><path class="cls-5" d="M377.721,376.143c6.747.985,13.782,2,20.811,3.041q24.675,3.673,49.345,7.378c14.338,2.155,28.669,4.359,43.009,6.5,12.512,1.867,25.021,3.762,37.558,5.445,3.162.424,4.971,2.142,4.838,4.9-.144,2.98-2.972,3.18-5.3,2.862-8.728-1.191-17.436-2.534-26.152-3.816Q479.9,399.223,457.965,396c-12.235-1.816-24.462-3.687-36.7-5.513-14.62-2.182-29.233-4.407-43.872-6.456-3-.419-6.053-.617-6.055-4.412C371.342,375.4,374.907,376.527,377.721,376.143Z" transform="translate(-57.515 -70.478)"/><path class="cls-7" d="M261.935,154.291a39.2,39.2,0,0,1,11.838,1.328c-4.869,1.944-6.212,5.937-8.178,9.392-5.228,9.189-10.335,18.447-15.526,27.657-.529.939-.8,2.566-2.165,2.316-1.288-.237-1.09-1.829-1.335-2.908-1.794-7.9-3.576-15.8-5.519-24.386-3.516,4-5.428,8.254-7.922,12.1-2.1,3.236-4.038,6.574-6.091,9.84-.5.79-.707,2.132-1.982,1.914-1.215-.208-1.123-1.54-1.339-2.431-2.691-11.1-5.3-22.23-7.993-33.334-.788-3.247-1.146-6.732-4-9.6l17.42,2.544c-5.428,1.667-3.555,5.454-2.754,8.838,1.51,6.377,3.085,12.738,4.676,19.287,9.541-10.587,11.9-19.575,2.549-26.63,2.867-.638,14.7.924,20.795,2.991-6.723.016-5.626,3.482-4.759,7.063,1.508,6.232,2.821,12.511,4.454,19.838,2.571-4.462,4.729-8.188,6.866-11.925,1.064-1.86,2.1-3.736,3.131-5.615C265.836,159.414,267.8,156.2,261.935,154.291Z" transform="translate(-57.515 -70.478)"/><path class="cls-8" d="M365.682,446.544q19.042,2.853,38.085,5.7,33.221,4.951,66.444,9.882c2.116.315,4.236.6,6.353.915,2.535.375,4.51,1.6,4.271,4.372-.242,2.811-2.339,3.761-4.973,3.4-8.9-1.231-17.8-2.464-26.688-3.778q-33.862-5.005-67.713-10.085c-5.5-.822-10.988-1.743-16.5-2.495-2.73-.373-4.908-1.419-4.682-4.44C360.519,446.856,362.984,446.361,365.682,446.544Z" transform="translate(-57.515 -70.478)"/><path class="cls-6" d="M483.579,310.423c-19.143-2.831-37.954-5.6-56.76-8.4-12.444-1.851-24.877-3.772-37.325-5.591-3-.438-6.133-.865-5.562-4.848.592-4.129,3.944-3.371,6.782-2.951q39.247,5.8,78.487,11.658c4.95.735,9.905,1.427,14.854,2.17,2.555.383,4.376,1.6,4.1,4.485C487.865,309.878,485.863,310.629,483.579,310.423Z" transform="translate(-57.515 -70.478)"/><path class="cls-7" d="M426.768,203.114c.888-6.576,1.858-12.851,2.537-19.158.335-3.118-2.313-4.175-4.876-5.07l.409-1,13.071,1.98.543,1.048c-6.289-.162-6.58,4.071-7.162,8.261-1.4,10.052-2.928,20.086-4.419,30.125a2.788,2.788,0,0,1-1.518,2.528q-5.618-9.48-11.255-18.986c-3.7-6.223-7.414-12.437-11.768-19.74-1.44,9.9-2.742,18.568-3.946,27.254-.525,3.782,2.171,5.171,4.967,7.026l-14.129-2c8-.575,6.715-7.025,7.577-11.8,1.167-6.466,1.955-13,2.878-19.511.84-5.922.613-6.411-4.947-10.278a77.71,77.71,0,0,1,14.664,1.954c.832.164,1.509,1.606,2.07,2.568,4.034,6.914,8,13.868,12.04,20.777C424.266,200.389,424.706,201.973,426.768,203.114Z" transform="translate(-57.515 -70.478)"/><path class="cls-7" d="M364.239,183.916c-1.034-5.138,4.407-10.4-2.695-14.84,4.53-.545,8.406.64,12.25,1.341,1.613.294.768,2.195.594,3.363-1.511,10.155-3.1,20.3-4.612,30.452-.359,2.406-.96,4.982,3.53,6.277-4.827,1.336-8.459.985-12,1.239-1.073.077-1.1-.228-1.524-3.272-9.569,4.886-16.909.286-17.028-10.631a22.161,22.161,0,0,1,2.012-9.976C348.7,179.636,355.73,177.989,364.239,183.916Zm-12.552,15.347c-.035,4.87,1.3,7.7,3.695,7.85a5,5,0,0,0,5.466-3.911,99.843,99.843,0,0,0,2.032-14,5.039,5.039,0,0,0-4.1-5.355c-3-.757-4.027,1.615-4.9,3.729C352.281,191.465,352.127,195.653,351.686,199.263Z" transform="translate(-57.515 -70.478)"/><path class="cls-7" d="M479.121,199.181c-4.95,5.75.539,10.735-.088,16.537,6.542-7.46,7.114-10.671,2.9-15.8,5.114.134,9.755,1.159,14.26,1.941-4.71,5.488.352,10.4.016,16.178,5.978-7,7.384-11.641,4.776-15.161,2.838-.471,5.357.468,8.066.832-6.095,5.169-8.027,12.663-11.863,18.964-1.335,2.192-2.426,4.532-3.651,6.792-.457.843-.7,2.036-2.016,1.86s-1.283-1.434-1.481-2.335c-1.34-6.091-2.608-12.2-4.17-19.577-2.851,5.169-5.145,9.325-7.436,13.482a37.315,37.315,0,0,1-1.87,3.369c-.669.962-.746,2.858-2.478,2.431-1.252-.309-1.152-1.843-1.376-2.917-1.254-6.008-2.406-12.038-3.7-18.039-.762-3.545-1.16-7.266-3.85-10.565Z" transform="translate(-57.515 -70.478)"/><path class="cls-7" d="M295.114,183.51c.08,9.4-5.849,16.586-13.673,16.58-8.246-.006-13.9-5.965-13.9-14.656,0-8.922,6.047-16.22,13.55-16.347C289.378,168.947,295.04,174.771,295.114,183.51Zm-19.044,7.119c.029,3.1-.082,6.279,3.417,6.79,3.622.529,4.315-2.719,4.906-5.331,1.163-5.143,2.247-10.334,2.191-15.637-.023-2.146-.5-4.4-3.307-4.763-2.769-.355-3.817,1.608-4.463,3.716A84.692,84.692,0,0,0,276.071,190.629Z" transform="translate(-57.515 -70.478)"/><path class="cls-7" d="M460.4,216.992c-3,6.227-7.741,8.844-13.346,7.885-5.951-1.018-9.7-5.272-10-12.133-.295-6.554,1.306-12.54,7.2-16.471a11.214,11.214,0,0,1,12.529-.3c3.606,2.508,5.8,8.3,5.047,12.551-.348,1.963-1.4,1.741-2.746,1.537-3.53-.536-7.075-.984-10.6-1.563-1.8-.3-2.69.178-2.626,2.147.121,3.727.909,7.189,4.339,9.25,3.338,2.006,5.984.255,8.42-2.016A10.168,10.168,0,0,1,460.4,216.992Zm-5.708-14.126c.092-4.233-.967-6.245-3.158-6.309-2.217-.065-5.278,3.885-5.135,7.44.165,4.1,3.936,2.129,5.91,2.607C455.742,207.435,453.989,204.033,454.692,202.866Z" transform="translate(-57.515 -70.478)"/><path class="cls-7" d="M327.971,164.257c4.828-.584,7.974.618,11.214.837,2.525.17,1.943,1.918,1.713,3.448q-2.292,15.229-4.6,30.455c-.458,3.024-1.351,6.145,1.877,8.708l-14.919-2.169c3.316-1.335,3.751-3.986,4.149-6.689q2.058-13.967,4.143-27.931C331.923,168.354,332.392,165.747,327.971,164.257Z" transform="translate(-57.515 -70.478)"/><path class="cls-7" d="M509.228,223.66c2.038,2.677,2.7,5.534,5.043,7.409,1.874,1.5,4,2.858,6.045.682,1.848-1.972.651-4-.929-5.663-2.164-2.271-4.541-4.355-6.558-6.746-3.169-3.755-3.221-8.226-.43-11.757,2.711-3.429,7.184-4.22,11.62-1.979,1.62.818,3.069,2.572,5.287-.7.176,4.442.123,7.565-.908,10.77-1.748-1.027-1.646-2.809-2.352-4.127A8.744,8.744,0,0,0,521.9,207.4a3.027,3.027,0,0,0-3.849.843c-1.115,1.288-.471,2.491.405,3.44,2.321,2.512,4.856,4.828,7.134,7.376,3.715,4.155,4.018,8.877,1.013,12.818-2.822,3.7-7.344,4.536-12.365,2.36-1.472-.638-2.791-2.108-4.707-.756-.887.626-1.242-.31-1.18-1.045C508.6,229.508,508.93,226.585,509.228,223.66Z" transform="translate(-57.515 -70.478)"/><path class="cls-7" d="M300.446,172.688c3.188.407,5.568.8,7.965.993,2.868.23,5.049.979,4.149,4.69,2.827-.36,4.235-2.79,6.692-3.27,3.52-.688,5.828.552,5.9,3.577.041,1.768-.336,3.443-2.071,4.413a3.484,3.484,0,0,1-4.628-.993c-2.192-2.6-4.033-1.845-5.436.511-3.187,5.352-3.188,11.466-3.757,17.423-.174,1.827,2.038,1.78,2.8,3.759L296.6,201.579C301.646,197.706,304.681,177.177,300.446,172.688Zm12.291,6.305c-.089-.055-.2-.176-.263-.154-.389.15-.4.364-.037.563.056.03.215-.052.272-.125S312.731,179.09,312.737,178.993Z" transform="translate(-57.515 -70.478)"/><path class="cls-9" d="M229.577,298.087a143.656,143.656,0,0,0,33.79-11.079c7.218-3.3,13.091-8.8,20.278-12.124a17.855,17.855,0,0,1,.77,2.429c1.619,9.5,3.193,19.016,4.8,28.522q3.191,18.874,6.412,37.742c-7.685-1.175-15.078-3.649-22.872-4.526a143.039,143.039,0,0,0-33.329.154,29.812,29.812,0,0,1-2.981.071c-.473-2.657-.991-5.308-1.411-7.974C233.291,320.218,230.7,309.273,229.577,298.087Z" transform="translate(-57.515 -70.478)"/><path class="cls-10" d="M229.577,298.087c1.122,11.186,3.713,22.131,5.458,33.215.419,2.666.938,5.317,1.411,7.974-.341,2.747-2.96,4.027-3.936,6.824-2.117,6.066.176,11.164,1.018,16.607.541,3.5,1.652,6.909,2.542,10.351.724,2.8.3,4.389-3.136,5.038-12.911,2.438-10.191,3.088-14-8.5-1.6-4.857-2.6-9.91-4.219-14.76-1.2-3.607-1.285-7.91-5.6-9.934-1.405-.659-1.007-2.53-1.116-3.931l-.8-.837.034.018c-.522-11.343-3.59-22.289-5.213-33.461-1.474-4.231.429-5.985,4.5-6.549,6.044-.837,12.049-1.95,18.081-2.875A7.31,7.31,0,0,1,229.577,298.087Z" transform="translate(-57.515 -70.478)"/><path class="cls-10" d="M295.628,343.578q-3.207-18.871-6.412-37.742c-1.607-9.506-3.181-19.018-4.8-28.522a17.855,17.855,0,0,0-.77-2.429c-.14-2.708.48-4.951,3.719-5.1,2.941-.132,3.814,1.881,4.205,4.374.746,4.755,1.7,9.481,2.34,14.249.466,3.457,1.324,6.457,4.028,9.047,5.121,4.906,6.506,13.75,3.352,20.188a12.84,12.84,0,0,0-.94,8.686q1.559,7.5,2.91,15.033c.429,2.4.19,4.78-2.66,5.494C297.969,347.519,296.166,346.369,295.628,343.578Z" transform="translate(-57.515 -70.478)"/><path class="cls-1" d="M202.017,306.695c1.623,11.172,4.691,22.118,5.213,33.461-3.645.162-5.552-2.522-7.72-4.751-.507-.521-.863-1.241-.17-1.874,3.418-3.118,1.823-4.233-1.794-4.6-1.044-.1-1.4-.851-1.491-1.782a5.672,5.672,0,0,0,1.633-.321c1.347-.715,4.147.155,3.851-2.235-.315-2.537-2.9-1.332-4.558-1.544a4.182,4.182,0,0,0-.838.058c-2.583-.8-1.578-1.743-.107-2.7,2.2-.214,5.851.584,5.561-2.457-.337-3.54-3.623-.394-5.509-.921C195.69,312.223,198.551,309.286,202.017,306.695Z" transform="translate(-57.515 -70.478)"/><path class="cls-10" d="M196.087,317.03c1.886.527,5.172-2.62,5.509.921.29,3.042-3.361,2.243-5.561,2.457Q196.061,318.719,196.087,317.03Z" transform="translate(-57.515 -70.478)"/><path class="cls-10" d="M196.141,323.112a4.182,4.182,0,0,1,.838-.058c1.659.213,4.243-.992,4.558,1.544.3,2.39-2.5,1.52-3.851,2.235a5.672,5.672,0,0,1-1.633.321Q196.1,325.132,196.141,323.112Z" transform="translate(-57.515 -70.478)"/><path class="cls-1" d="M207.2,340.138l.8.837Z" transform="translate(-57.515 -70.478)"/><path class="cls-3" d="M351.686,199.263c.44-3.61.595-7.8,2.2-11.685.871-2.114,1.9-4.487,4.9-3.729a5.039,5.039,0,0,1,4.1,5.355,99.843,99.843,0,0,1-2.032,14,5,5,0,0,1-5.466,3.911C352.989,206.963,351.652,204.133,351.686,199.263Z" transform="translate(-57.515 -70.478)"/><path class="cls-3" d="M276.071,190.629a84.692,84.692,0,0,1,2.744-15.225c.645-2.108,1.694-4.071,4.463-3.716,2.805.36,3.284,2.616,3.307,4.763.056,5.3-1.028,10.494-2.191,15.637-.591,2.612-1.283,5.86-4.906,5.331C275.989,196.908,276.1,193.731,276.071,190.629Z" transform="translate(-57.515 -70.478)"/><path class="cls-3" d="M454.692,202.866c-.7,1.167,1.05,4.569-2.383,3.738-1.974-.478-5.745,1.494-5.91-2.607-.143-3.555,2.917-7.5,5.135-7.44C453.725,196.621,454.784,198.634,454.692,202.866Z" transform="translate(-57.515 -70.478)"/><path class="cls-1" d="M312.737,178.993c-.006.1.021.221-.028.285s-.216.155-.272.125c-.366-.2-.352-.414.037-.563C312.533,178.817,312.648,178.938,312.737,178.993Z" transform="translate(-57.515 -70.478)"/></svg>