<svg id="Layer_1" data-name="Layer 1" xmlns="http://www.w3.org/2000/svg" viewBox="0 0 147.706 361.571"><defs><style>.cls-1{fill:#fefefd;}.cls-2{fill:#c7cbea;}.cls-3{fill:#fe580a;}.cls-4{fill:#e4e6ef;}</style></defs><title>pin</title><path class="cls-1" d="M220.873,156.017c-.645,4-4.4,3.083-6.8,4.206-23.132,10.82-37.3,28.359-41.164,53.937-.455,3.018.77,6.831-2.77,9-3.3-16.092-6.3-32.251-10.049-48.237-1.244-5.31-.307-6.687,5.054-7.659C183.785,163.883,202.306,159.82,220.873,156.017Z" transform="translate(-159.598 -156.017)"/><path class="cls-2" d="M235.587,290.22a79.352,79.352,0,0,0,34.408-7.052q17.721,86.5,35.446,173c3.758,18.344,1.888,39.43-6.13,61.422-9.989-16.271-23.073-28.654-26.8-46.948Q254.106,380.418,235.587,290.22Z" transform="translate(-159.598 -156.017)"/><circle class="cls-3" cx="239.469" cy="223.786" r="67.5" transform="translate(-199.627 -103.422) rotate(-11.574)"/><path class="cls-4" d="M190.451,229.951c-4.939-22.254,15.073-52.228,37.2-55.582,4.3-.652,8.623-.607,10.16,4.8,1.408,4.947-.568,8.215-5.358,9.7-19.672,6.1-28.537,19.29-26.718,39.876.449,5.085-1.625,9.474-7.509,9.541C193.171,238.34,191.133,234.532,190.451,229.951Z" transform="translate(-159.598 -156.017)"/></svg>