<?xml version="1.0" encoding="UTF-8"?>
<svg width="1440px" height="409px" viewBox="0 0 1440 409" version="1.1" xmlns="http://www.w3.org/2000/svg" xmlns:xlink="http://www.w3.org/1999/xlink">
    <!-- Generator: Sketch 52.4 (67378) - http://www.bohemiancoding.com/sketch -->
    <title>Subway Car</title>
    <desc>Created with Sketch.</desc>
    <g id="Page-2" stroke="none" stroke-width="1" fill="none" fill-rule="evenodd">
        <g id="Desktop-HD-Copy-7" transform="translate(0.000000, -4050.000000)">
            <g id="Subway-Car" transform="translate(-168.000000, 4050.000000)">
                <path d="M19.229139,-7.76880231e-16 L1755.77086,2.55323707e-15 C1762.45725,1.32496705e-15 1764.8819,0.696192084 1767.32634,2.00349528 C1769.77079,3.31079847 1771.6892,5.22921278 1772.9965,7.67365722 C1774.30381,10.1181017 1775,12.5427485 1775,19.229139 L1775,389.770861 C1775,396.457252 1774.30381,398.881898 1772.9965,401.326343 C1771.6892,403.770787 1769.77079,405.689202 1767.32634,406.996505 C1764.8819,408.303808 1762.45725,409 1755.77086,409 L19.229139,409 C12.5427485,409 10.1181017,408.303808 7.67365722,406.996505 C5.22921278,405.689202 3.31079847,403.770787 2.00349528,401.326343 C0.696192084,398.881898 3.00926524e-16,396.457252 -5.17920154e-16,389.770861 L-1.25843669e-15,19.229139 C-2.07728336e-15,12.5427485 0.696192084,10.1181017 2.00349528,7.67365722 C3.31079847,5.22921278 5.22921278,3.31079847 7.67365722,2.00349528 C10.1181017,0.696192084 12.5427485,4.51389787e-16 19.229139,-7.76880231e-16 Z" id="Rectangle" fill="#E3E2E2"></path>
                <polygon id="Rectangle" fill="#FCF0F0" points="19 277 1727 277 1727 376 19 376"></polygon>
                <path d="M455.229139,56 L524.770861,56 C531.457252,56 533.881898,56.6961921 536.326343,58.0034953 C538.770787,59.3107985 540.689202,61.2292128 541.996505,63.6736572 C543.303808,66.1181017 544,68.5427485 544,75.229139 L544,203.770861 C544,210.457252 543.303808,212.881898 541.996505,215.326343 C540.689202,217.770787 538.770787,219.689202 536.326343,220.996505 C533.881898,222.303808 531.457252,223 524.770861,223 L455.229139,223 C448.542748,223 446.118102,222.303808 443.673657,220.996505 C441.229213,219.689202 439.310798,217.770787 438.003495,215.326343 C436.696192,212.881898 436,210.457252 436,203.770861 L436,75.229139 C436,68.5427485 436.696192,66.1181017 438.003495,63.6736572 C439.310798,61.2292128 441.229213,59.3107985 443.673657,58.0034953 C446.118102,56.6961921 448.542748,56 455.229139,56 Z" id="Rectangle-Copy-8" fill="#BCBBBB"></path>
                <path d="M1190.22914,56 L1259.77086,56 C1266.45725,56 1268.8819,56.6961921 1271.32634,58.0034953 C1273.77079,59.3107985 1275.6892,61.2292128 1276.9965,63.6736572 C1278.30381,66.1181017 1279,68.5427485 1279,75.229139 L1279,203.770861 C1279,210.457252 1278.30381,212.881898 1276.9965,215.326343 C1275.6892,217.770787 1273.77079,219.689202 1271.32634,220.996505 C1268.8819,222.303808 1266.45725,223 1259.77086,223 L1190.22914,223 C1183.54275,223 1181.1181,222.303808 1178.67366,220.996505 C1176.22921,219.689202 1174.3108,217.770787 1173.0035,215.326343 C1171.69619,212.881898 1171,210.457252 1171,203.770861 L1171,75.229139 C1171,68.5427485 1171.69619,66.1181017 1173.0035,63.6736572 C1174.3108,61.2292128 1176.22921,59.3107985 1178.67366,58.0034953 C1181.1181,56.6961921 1183.54275,56 1190.22914,56 Z" id="Rectangle-Copy-11" fill="#BCBBBB"></path>
                <path d="M1626.22914,56 L1695.77086,56 C1702.45725,56 1704.8819,56.6961921 1707.32634,58.0034953 C1709.77079,59.3107985 1711.6892,61.2292128 1712.9965,63.6736572 C1714.30381,66.1181017 1715,68.5427485 1715,75.229139 L1715,203.770861 C1715,210.457252 1714.30381,212.881898 1712.9965,215.326343 C1711.6892,217.770787 1709.77079,219.689202 1707.32634,220.996505 C1704.8819,222.303808 1702.45725,223 1695.77086,223 L1626.22914,223 C1619.54275,223 1617.1181,222.303808 1614.67366,220.996505 C1612.22921,219.689202 1610.3108,217.770787 1609.0035,215.326343 C1607.69619,212.881898 1607,210.457252 1607,203.770861 L1607,75.229139 C1607,68.5427485 1607.69619,66.1181017 1609.0035,63.6736572 C1610.3108,61.2292128 1612.22921,59.3107985 1614.67366,58.0034953 C1617.1181,56.6961921 1619.54275,56 1626.22914,56 Z" id="Rectangle-Copy-14" fill="#BCBBBB"></path>
                <path d="M587.229139,36 L796.770861,36 C803.457252,36 805.881898,36.6961921 808.326343,38.0034953 C810.770787,39.3107985 812.689202,41.2292128 813.996505,43.6736572 C815.303808,46.1181017 816,48.5427485 816,55.229139 L816,369.770861 C816,376.457252 815.303808,378.881898 813.996505,381.326343 C812.689202,383.770787 810.770787,385.689202 808.326343,386.996505 C805.881898,388.303808 803.457252,389 796.770861,389 L587.229139,389 C580.542748,389 578.118102,388.303808 575.673657,386.996505 C573.229213,385.689202 571.310798,383.770787 570.003495,381.326343 C568.696192,378.881898 568,376.457252 568,369.770861 L568,55.229139 C568,48.5427485 568.696192,46.1181017 570.003495,43.6736572 C571.310798,41.2292128 573.229213,39.3107985 575.673657,38.0034953 C578.118102,36.6961921 580.542748,36 587.229139,36 Z" id="Rectangle" fill="#BCBBBB"></path>
                <path d="M307.229139,56 L376.770861,56 C383.457252,56 385.881898,56.6961921 388.326343,58.0034953 C390.770787,59.3107985 392.689202,61.2292128 393.996505,63.6736572 C395.303808,66.1181017 396,68.5427485 396,75.229139 L396,203.770861 C396,210.457252 395.303808,212.881898 393.996505,215.326343 C392.689202,217.770787 390.770787,219.689202 388.326343,220.996505 C385.881898,222.303808 383.457252,223 376.770861,223 L307.229139,223 C300.542748,223 298.118102,222.303808 295.673657,220.996505 C293.229213,219.689202 291.310798,217.770787 290.003495,215.326343 C288.696192,212.881898 288,210.457252 288,203.770861 L288,75.229139 C288,68.5427485 288.696192,66.1181017 290.003495,63.6736572 C291.310798,61.2292128 293.229213,59.3107985 295.673657,58.0034953 C298.118102,56.6961921 300.542748,56 307.229139,56 Z" id="Rectangle-Copy-9" fill="#BCBBBB"></path>
                <path d="M1042.22914,56 L1111.77086,56 C1118.45725,56 1120.8819,56.6961921 1123.32634,58.0034953 C1125.77079,59.3107985 1127.6892,61.2292128 1128.9965,63.6736572 C1130.30381,66.1181017 1131,68.5427485 1131,75.229139 L1131,203.770861 C1131,210.457252 1130.30381,212.881898 1128.9965,215.326343 C1127.6892,217.770787 1125.77079,219.689202 1123.32634,220.996505 C1120.8819,222.303808 1118.45725,223 1111.77086,223 L1042.22914,223 C1035.54275,223 1033.1181,222.303808 1030.67366,220.996505 C1028.22921,219.689202 1026.3108,217.770787 1025.0035,215.326343 C1023.69619,212.881898 1023,210.457252 1023,203.770861 L1023,75.229139 C1023,68.5427485 1023.69619,66.1181017 1025.0035,63.6736572 C1026.3108,61.2292128 1028.22921,59.3107985 1030.67366,58.0034953 C1033.1181,56.6961921 1035.54275,56 1042.22914,56 Z" id="Rectangle-Copy-12" fill="#BCBBBB"></path>
                <path d="M159.229139,56 L228.770861,56 C235.457252,56 237.881898,56.6961921 240.326343,58.0034953 C242.770787,59.3107985 244.689202,61.2292128 245.996505,63.6736572 C247.303808,66.1181017 248,68.5427485 248,75.229139 L248,203.770861 C248,210.457252 247.303808,212.881898 245.996505,215.326343 C244.689202,217.770787 242.770787,219.689202 240.326343,220.996505 C237.881898,222.303808 235.457252,223 228.770861,223 L159.229139,223 C152.542748,223 150.118102,222.303808 147.673657,220.996505 C145.229213,219.689202 143.310798,217.770787 142.003495,215.326343 C140.696192,212.881898 140,210.457252 140,203.770861 L140,75.229139 C140,68.5427485 140.696192,66.1181017 142.003495,63.6736572 C143.310798,61.2292128 145.229213,59.3107985 147.673657,58.0034953 C150.118102,56.6961921 152.542748,56 159.229139,56 Z" id="Rectangle-Copy-10" fill="#BCBBBB"></path>
                <path d="M894.229139,56 L963.770861,56 C970.457252,56 972.881898,56.6961921 975.326343,58.0034953 C977.770787,59.3107985 979.689202,61.2292128 980.996505,63.6736572 C982.303808,66.1181017 983,68.5427485 983,75.229139 L983,203.770861 C983,210.457252 982.303808,212.881898 980.996505,215.326343 C979.689202,217.770787 977.770787,219.689202 975.326343,220.996505 C972.881898,222.303808 970.457252,223 963.770861,223 L894.229139,223 C887.542748,223 885.118102,222.303808 882.673657,220.996505 C880.229213,219.689202 878.310798,217.770787 877.003495,215.326343 C875.696192,212.881898 875,210.457252 875,203.770861 L875,75.229139 C875,68.5427485 875.696192,66.1181017 877.003495,63.6736572 C878.310798,61.2292128 880.229213,59.3107985 882.673657,58.0034953 C885.118102,56.6961921 887.542748,56 894.229139,56 Z" id="Rectangle-Copy-13" fill="#BCBBBB"></path>
                <path d="M1354.22914,36 L1563.77086,36 C1570.45725,36 1572.8819,36.6961921 1575.32634,38.0034953 C1577.77079,39.3107985 1579.6892,41.2292128 1580.9965,43.6736572 C1582.30381,46.1181017 1583,48.5427485 1583,55.229139 L1583,369.770861 C1583,376.457252 1582.30381,378.881898 1580.9965,381.326343 C1579.6892,383.770787 1577.77079,385.689202 1575.32634,386.996505 C1572.8819,388.303808 1570.45725,389 1563.77086,389 L1354.22914,389 C1347.54275,389 1345.1181,388.303808 1342.67366,386.996505 C1340.22921,385.689202 1338.3108,383.770787 1337.0035,381.326343 C1335.69619,378.881898 1335,376.457252 1335,369.770861 L1335,55.229139 C1335,48.5427485 1335.69619,46.1181017 1337.0035,43.6736572 C1338.3108,41.2292128 1340.22921,39.3107985 1342.67366,38.0034953 C1345.1181,36.6961921 1347.54275,36 1354.22914,36 Z" id="Rectangle-Copy-7" fill="#BCBBBB"></path>
            </g>
        </g>
    </g>
</svg>